<?xml version="1.0" standalone="no"?>
<!DOCTYPE svg PUBLIC "-//W3C//DTD SVG 20010904//EN"
 "http://www.w3.org/TR/2001/REC-SVG-20010904/DTD/svg10.dtd">
<svg version="1.0" xmlns="http://www.w3.org/2000/svg"
 width="251.000000pt" height="201.000000pt" viewBox="0 0 251.000000 201.000000"
 preserveAspectRatio="xMidYMid meet">

<g transform="translate(0.000000,201.000000) scale(0.100000,-0.100000)"
fill="#000000" stroke="none">
<path d="M0 1005 l0 -1005 1255 0 1255 0 0 1005 0 1005 -1255 0 -1255 0 0
-1005z m1295 331 c42 -18 65 -61 65 -121 0 -68 -24 -53 -30 18 -4 40 -11 61
-25 71 -28 21 -68 20 -96 -3 -21 -16 -25 -31 -29 -98 l-5 -78 -92 -5 c-107 -6
-127 -18 -127 -76 0 -27 7 -42 24 -56 39 -31 101 -20 212 38 187 97 212 108
269 112 32 2 66 -1 78 -7 30 -17 17 -33 -17 -20 -47 18 -103 1 -268 -82 -138
-70 -168 -81 -213 -82 -48 -1 -57 2 -82 31 -39 43 -39 90 -1 134 28 30 33 32
115 36 l87 5 0 66 c1 72 10 92 56 116 36 18 37 18 79 1z m235 -291 c37 -19 54
-69 39 -112 -17 -49 -47 -63 -138 -63 l-79 0 -4 -76 c-3 -69 -6 -79 -31 -100
-46 -39 -123 -27 -146 23 -6 13 -10 47 -10 76 l2 52 6 -56 c9 -88 59 -126 121
-94 33 17 39 33 42 120 l3 60 87 5 c74 5 91 9 112 29 30 28 33 66 10 99 -38
55 -104 47 -244 -28 -159 -86 -203 -103 -262 -104 -31 0 -61 4 -67 9 -7 7 14
10 62 10 70 0 76 2 199 68 188 100 237 114 298 82z"/>
</g>
</svg>
