<?xml version="1.0" standalone="yes"?>
<svg xmlns="http://www.w3.org/2000/svg" width="338" height="225">
<path style="fill:#d2cacb; stroke:none;" d="M0 0L0 109L1 109L2 104L8 106L17 104L16 101L20 101L16 107L26 98L21 101L24 95L33 93C30.9083 91.418 31.2671 90.8937 33 89L32 82L36 85L38 82L38 85L41 86L42 82L42 81C45.9782 83.7535 41.0886 87.111 39 90C47.5513 85.2392 66.1727 78.3784 71 70L69 72L68 72L71 64L71 69C75.6997 71.3499 85.6478 62.761 86 61L87 61L88 63C100.682 46.6825 103.214 24.5365 88.0934 8.95679C85.7017 6.4924 83.8139 2.07188 80.6211 0.603394C74.642 -2.14664 63.532 0 57 0L0 0z"/>
<path style="fill:#9f9b9b; stroke:none;" d="M82.3333 0.666672L82.6667 1.33333L82.3333 0.666672z"/>
<path style="fill:#7e6b62; stroke:none;" d="M83 0C84.4537 6.11456 89.2244 12.5676 96 12L98.8951 47L95 65L94 65L94 62L93 62C94.1845 70.5716 100.247 75.7389 108 79L101 87L102 89L98 89L99 93L93 89L96 101L93 100C95.4387 103.691 99.6907 105.095 104 105L109 108L103 98L128 120L107 98L112 98L114 91L118 95L119 95L117 88L117 87L123 87L129 88L129 87L120 83L120 82L126 83L126 82L124 81L127 72L128 72C130.728 74.8225 135.65 72.2573 138.076 69.6975C143.789 63.6688 145.468 54.3452 153 50L153 49C140.914 50.2695 129.999 62.2609 118.222 53.5C108.653 46.3808 100.853 29.4781 98.8333 18C97.9965 13.2433 101.192 1.32689 95 0L96 7L86 0L87 3L83 0z"/>
<path style="fill:#465759; stroke:none;" d="M84 0L87 3L84 0M91 0L92 1L91 0z"/>
<path style="fill:#202726; stroke:none;" d="M92 0L95 4L92 0z"/>
<path style="fill:#465759; stroke:none;" d="M94.3333 0.666672L94.6667 1.33333L94.3333 0.666672M98 0L100 2L100 0L98 0z"/>
<path style="fill:#7e6b62; stroke:none;" d="M100 0L104 15L110 15L112 17L112 18L110 21L115 25L119 25L118 23L119 23L126 24C130.676 17.8398 136.942 16.207 144 14L140 5L141 5L142 8C146.838 6.1469 151.196 5.05811 153 11L157 11L157 12L156 15L155 16C148.908 14.6134 141.441 15.0768 138 21L162 21L162 20L147 18L147 17L160 15L157 9L160 8L160 7L139 0C139.363 7.12125 138.039 14.0966 130 15L130 12L125 12C124.676 -3.12088 111.431 0 100 0z"/>
<path style="fill:#9f9b9b; stroke:none;" d="M121 0L125 12L130 12L130 15C135.099 14.7183 144.097 6.16109 138.218 1.02779C134.958 -1.81924 125.138 0 121 0M147 0C150.031 4.14435 155.978 6.54391 161 7C157.643 2.05251 152.82 0.0687256 147 0z"/>
<path style="fill:#d2cacb; stroke:none;" d="M154 0L161 5C157.473 13.5557 166.315 15.5148 169 23L172 21C169.364 32.5005 166.151 45.7539 154 50L147.752 67L147 81L147 82C149.916 82.3153 152.06 83.2532 150 86C154.209 87.7352 156.262 87.6484 160 85L161 86L150 91L150 92L158 91L158 92L156 92L156 93L165 91L165 92C151.874 96.0741 143.8 97.331 130 97L162 134L163 134L166.91 111L169 74L170 74L169 109L170 121L173 115L185 118L184 121L167 122L170 128L166 129L169 128L173 130L168 135L166 130L165 130L166 142L167 142L167 138L168 138L168 143L169 143L175 139L173 134L177 139L178 132L181 125L182 125L182 129L187 127C183.299 127 185.137 123.325 186 121L187 121L186 126C195.993 118.862 186.108 106.555 186 98L184 101L183 101C184.33 82.1684 168.111 72.6493 161 57L171 65L176 67L173 66L173 67L180 74L183 73L182 76L183 78L187 83L189 82L191 87L192 87L191 83C193.987 82.4698 191.596 78.8942 190.255 77.0046C186.624 71.888 180.716 70.6891 176 67L177 66C190.811 73.9771 199.594 80.4792 199 98C201.807 98 201.932 102.459 203.167 105C207.129 113.151 207.755 119.227 216 124L212 115L214 115C210.156 104.452 210.901 92.7495 213 82L215 82C218.894 91.5417 221.975 109.223 218 119L218 122L218 123L220 124L220 125L223 143L224 143L222 99L224 99L231 113L227 91C235.191 98.5615 237.263 108.364 236 119L237 119L238 108L239 108C242.664 127.444 246.816 144.947 255 163L257 161L264 175L261 174L262 178L264 177L265 180L252 184L252 187L277 183.001L338 171L338 0L154 0z"/>
<path style="fill:#202726; stroke:none;" d="M98 1L99 9L101 4L99 4L98 1z"/>
<path style="fill:#465759; stroke:none;" d="M95 2L94 7L95 2z"/>
<path style="fill:#9f9b9b; stroke:none;" d="M143 2L143 4L145 4L145 2L143 2M83 3L84 4L83 3z"/>
<path style="fill:#465759; stroke:none;" d="M87.6667 3.33333L88.3333 3.66667L87.6667 3.33333M93 3L94 4L93 3M99.6667 3.33333L100.333 3.66667L99.6667 3.33333z"/>
<path style="fill:#9f9b9b; stroke:none;" d="M84 4L85 5L84 4z"/>
<path style="fill:#465759; stroke:none;" d="M98 4L98 7L99 7L98 4M100 5L101 6L100 5M140 5L140 7L142 7L140 5z"/>
<path style="fill:#9f9b9b; stroke:none;" d="M85 6L86 7L85 6z"/>
<path style="fill:#465759; stroke:none;" d="M144 6L145 7L144 6z"/>
<path style="fill:#202726; stroke:none;" d="M140 7L140 8L146 10L145 13L152 13L152 7L140 7z"/>
<path style="fill:#465759; stroke:none;" d="M150.667 6.33333L151.333 6.66667L150.667 6.33333z"/>
<path style="fill:#9f9b9b; stroke:none;" d="M86 7L87 8L86 7z"/>
<path style="fill:#465759; stroke:none;" d="M99 7L100 8L99 7M101 7C98.1193 12.4302 98.0463 17.2174 100 23L101 23L102 19L105 25L107 21L108 24L111 27L112 27L113 27L112 23L119 30L120 30L125 28L125 32L126 32L127 28L129 27L130 27L128 32L136 32L127 33L127 40L133 36L134 39L140 37L141 42L143 40L144 40C144.583 48.2795 151.384 47 158 47L158 46L154 42L153 42L152 46L146 42L143 38L135 28L134 28L132 30C132.068 26.5853 132.335 24.4565 136 24L139 22L138 19L153 13L153 7L152 7L152 13C148.597 13.5682 146.946 13.4845 146 10L143 10L143 11L144 14L140 17C134.159 15.4137 128.717 18.6976 126 24L118 23L119 25L115 25L110 21L112 18L112 17L110 15L104 15L101 7z"/>
<path style="fill:#9f9b9b; stroke:none;" d="M163 7L164 8L163 7M87 8L88 9L87 8z"/>
<path style="fill:#465759; stroke:none;" d="M150.333 8.66667L150.667 9.33333L150.333 8.66667z"/>
<path style="fill:#9f9b9b; stroke:none;" d="M156 8L157 9L156 8M158 8L160 15L155 16L155 17L165 19L164 17L165 17C166.409 20.2175 166.449 21.7321 163 23L163 24L166 30L161 24L156 25L159 30L146 36L150 36L151 42L152 42L153 39L151 40L151 39C154.314 38.5009 155.38 39.0594 157 42L163 43L162 40L166 41L168 29L169 29L169 31L170 31C169.461 27.7679 168.102 26.2754 171 27L170 24L172 21L169 23L158 8M88 9L89 10L88 9z"/>
<path style="fill:#465759; stroke:none;" d="M90 9L91 10L90 9M109.333 9.66667L109.667 10.3333L109.333 9.66667M142 9L143 10L142 9z"/>
<path style="fill:#9f9b9b; stroke:none;" d="M89 10L90 11L89 10M90 11L91 12L90 11z"/>
<path style="fill:#202726; stroke:none;" d="M92 11L93 12L92 11z"/>
<path style="fill:#465759; stroke:none;" d="M93 11L94 12L93 11z"/>
<path style="fill:#202726; stroke:none;" d="M154 11L153 13L155 13L154 11z"/>
<path style="fill:#465759; stroke:none;" d="M155.667 11.3333L156.333 11.6667L155.667 11.3333z"/>
<path style="fill:#9f9b9b; stroke:none;" d="M91 12L92 13L91 12z"/>
<path style="fill:#465759; stroke:none;" d="M94.6667 12.3333L95.3333 12.6667L94.6667 12.3333z"/>
<path style="fill:#9f9b9b; stroke:none;" d="M93 13L93 14L96 15L93 13M96 15L96 18L97 18L96 15z"/>
<path style="fill:#202726; stroke:none;" d="M141 15L142 16L141 15M139 16L140 17L139 16z"/>
<path style="fill:#9f9b9b; stroke:none;" d="M147 17L147 18L153 17L147 17z"/>
<path style="fill:#d2cacb; stroke:none;" d="M151 17L151 18L164 20C160.832 15.2251 156.012 16.6078 151 17z"/>
<path style="fill:#202726; stroke:none;" d="M138 17L139 18L138 17z"/>
<path style="fill:#7e6b62; stroke:none;" d="M164 17L165 23C166.452 20.4305 166.354 18.8488 164 17z"/>
<path style="fill:#465759; stroke:none;" d="M112.333 18.6667L112.667 19.3333L112.333 18.6667z"/>
<path style="fill:#9f9b9b; stroke:none;" d="M152 18L152 19L161 19L152 18z"/>
<path style="fill:#202726; stroke:none;" d="M100 19L111 40L117 45L119 44L119 48L127 49L127 48L124 47L124 46L128 49C139.073 45.8154 153.69 54.6598 163 44C156.316 47.1194 145.41 50.0579 144 40L143 40L141 42L140 37L139 40L133 36L127 40L127 33C130.691 34.7957 132.985 34.9116 136 32L128 32L130 27L129 27L127 28L126 32L125 32L125 28L120 30L119 30L112 23L113 27L112 27L111 27L107 21L105 25L100 19z"/>
<path style="fill:#7e6b62; stroke:none;" d="M101 19L102 20L101 19z"/>
<path style="fill:#465759; stroke:none;" d="M144 19L144 20L153 21L144 19z"/>
<path style="fill:#9f9b9b; stroke:none;" d="M161 19L162 20L161 19z"/>
<path style="fill:#202726; stroke:none;" d="M104 20L104 23L106 20L104 20z"/>
<path style="fill:#465759; stroke:none;" d="M140 20L140 21L143 21L140 20z"/>
<path style="fill:#202726; stroke:none;" d="M135 22L135 23L163 22C155.54 18.8698 142.695 19.7903 135 22z"/>
<path style="fill:#465759; stroke:none;" d="M159 20L160 21L159 20z"/>
<path style="fill:#9f9b9b; stroke:none;" d="M162.667 20.3333L163.333 20.6667L162.667 20.3333z"/>
<path style="fill:#465759; stroke:none;" d="M162 23L165 23L164 21L162 23z"/>
<path style="fill:#9f9b9b; stroke:none;" d="M97 22L97 28L98 28L97 22z"/>
<path style="fill:#465759; stroke:none;" d="M153.667 22.3333L154.333 22.6667L153.667 22.3333z"/>
<path style="fill:#7e6b62; stroke:none;" d="M155 22L155 23L158 23L155 22z"/>
<path style="fill:#9f9b9b; stroke:none;" d="M158.667 22.3333L159.333 22.6667L158.667 22.3333z"/>
<path style="fill:#7e6b62; stroke:none;" d="M160.667 22.3333L161.333 22.6667L160.667 22.3333M127 23L128 24L127 23M132 30L134 28L135 28L143 38L146 42L152 46L153 42L154 42C156.435 46.1222 159.698 45.075 164 45C164.5 42.0872 165.123 40.6832 162 40L163 43L157 42C155.938 38.7942 153.56 37.1134 151 40L153 39L152 42L151 42L150 36L146 36L159 30C156.571 25.185 152.989 25.1202 148 25L148 24L151 24C145.153 21.5695 131.13 22.2213 132 30z"/>
<path style="fill:#465759; stroke:none;" d="M142.667 23.3333L143.333 23.6667L142.667 23.3333z"/>
<path style="fill:#9f9b9b; stroke:none;" d="M148 24L148 25L154 26L157 24L148 24z"/>
<path style="fill:#d2cacb; stroke:none;" d="M153 24L153 25L161 24L166 30C165.093 22.0542 159.391 23.193 153 24z"/>
<path style="fill:#465759; stroke:none;" d="M138 24L138 25L141 25L138 24z"/>
<path style="fill:#7e6b62; stroke:none;" d="M170 24L171 25L170 24z"/>
<path style="fill:#465759; stroke:none;" d="M102 25L102 28L103 28L102 25z"/>
<path style="fill:#202726; stroke:none;" d="M117.333 25.6667L117.667 26.3333L117.333 25.6667z"/>
<path style="fill:#465759; stroke:none;" d="M104 26L105 27L104 26z"/>
<path style="fill:#202726; stroke:none;" d="M125 26L126 27L125 26z"/>
<path style="fill:#7e6b62; stroke:none;" d="M169 26L169 29L170 29L169 26z"/>
<path style="fill:#465759; stroke:none;" d="M145 30L153 33L149 31L152 28L145 30z"/>
<path style="fill:#202726; stroke:none;" d="M149 31L155 30L155 28L149 31z"/>
<path style="fill:#465759; stroke:none;" d="M153.667 27.3333L154.333 27.6667L153.667 27.3333M103 28C104.541 40.565 115.67 58.2399 130.17 57.4414C134.739 57.1897 141.821 53.0571 146 51L146 50L128 49C128 46.1736 126.858 46.2095 124 46L124 47L127 48L127 49L119 48L120 45L117 45L111 40L103 28M139 28L140 30L141 30L142 28L139 28M155.333 28.6667L155.667 29.3333L155.333 28.6667M114.333 29.6667L114.667 30.3333L114.333 29.6667z"/>
<path style="fill:#7e6b62; stroke:none;" d="M168 29L168 32L169 32L168 29z"/>
<path style="fill:#465759; stroke:none;" d="M154 30L155 31L154 30z"/>
<path style="fill:#9f9b9b; stroke:none;" d="M98 31L96 55L97 55C99.4148 48.3743 100.796 37.6634 98 31z"/>
<path style="fill:#7e6b62; stroke:none;" d="M167.333 32.6667L167.667 33.3333L167.333 32.6667z"/>
<path style="fill:#202726; stroke:none;" d="M137.667 34.3333L138.333 34.6667L137.667 34.3333z"/>
<path style="fill:#7e6b62; stroke:none;" d="M166 35L167 36L166 35z"/>
<path style="fill:#465759; stroke:none;" d="M125 36L125 38L127 38L127 36L125 36z"/>
<path style="fill:#7e6b62; stroke:none;" d="M165 39L166 40L165 39z"/>
<path style="fill:#9f9b9b; stroke:none;" d="M67 41L75 42L67 41M79 40L79 41L88 42L79 40z"/>
<path style="fill:#465759; stroke:none;" d="M135 40L136 41L135 40z"/>
<path style="fill:#9f9b9b; stroke:none;" d="M55 41L56 42L55 41z"/>
<path style="fill:#7e6b62; stroke:none;" d="M161 41L162 42L161 41z"/>
<path style="fill:#9f9b9b; stroke:none;" d="M164.333 42.6667L164.667 43.3333L164.333 42.6667z"/>
<path style="fill:#465759; stroke:none;" d="M161 44L162 45L161 44M159.667 45.3333L160.333 45.6667L159.667 45.3333z"/>
<path style="fill:#7e6b62; stroke:none;" d="M162 45L163 46L162 45M161 46L162 47L161 46z"/>
<path style="fill:#465759; stroke:none;" d="M159 47L160 48L159 47z"/>
<path style="fill:#9f9b9b; stroke:none;" d="M160 47L161 48L160 47z"/>
<path style="fill:#465759; stroke:none;" d="M156 48L157 49L156 48z"/>
<path style="fill:#7e6b62; stroke:none;" d="M157 48L158 49L157 48z"/>
<path style="fill:#9f9b9b; stroke:none;" d="M158 48L159 49L158 48z"/>
<path style="fill:#465759; stroke:none;" d="M146 49L146 50L150 50L146 49z"/>
<path style="fill:#9f9b9b; stroke:none;" d="M128 72L127 72L126 82L126 83L120 82L120 83C123.813 84.8685 131.292 90.5929 135 87L146 91L146 92L133 92L133 91L135 91L135 90L117 87L117 88L119 95L118 95L114 91L112 98L107 98L128 120L103 98L109 108L104 105L93 102L109 137L93 122L92 122L91 135L95 135C93.877 136.925 92.4689 139.517 92 136L91 136L92 146C100.104 148.107 104.578 154.428 107 162L96 153L95 153L97 163L101 163L101 164L98 165L106 166L106 169L107 169L106 167L107 167L111 172L113 171L114 176L115 176L112 168L110 169L108 166C117.338 167.169 117.182 177.115 115 184L110 181L110 188L115 186L123 192L122 196C125.787 193.68 125.735 190.15 126 186L129 187L129 184L133 184C133.974 189.816 142.908 188.689 148 191L147 195L150 196L150 187L152 184C162.72 193.22 157.001 212.671 157 225L168 225L168 211L169 211L170 218L173 217L174 225L184 225C181.149 219.186 176.76 211.16 187 211L187 210L185 210L185 209L189 210L187 204L185 205L185 204L179 182L187 183C187.012 165.453 192.169 147.512 188 130L199 117L193 107L199 111L200 111L197 103L195 100L193 97L189 97L191 94L187 91L186 91L189 100L188 100L180 83L179 83L183 101L184 101L186 98C184.736 107.918 194.819 116.217 186 126L187 121L186 121C184.898 123.475 183.696 126.497 187 127L182 129L182 125L181 125L178 132L177 139L173 134L175 139L169 143L168 143L168 138L167 138L167 142L166 142C163.001 130.438 153.802 123.607 146.289 114.999C140.406 108.258 134.748 99.687 127 95L127 94L139 96L138 98L151 98L151 97L148 97L148 96L165 92L165 91L156 93L156 92L158 92L158 91C151.785 91.734 147.557 91.7061 144 86L133 86L133 85L146 85L146 88L147 88L147 85C150.681 90.1036 156.756 90.7596 161 86L160 85L150 86L152 84L147 82L147 81L149 80C146.172 71.4631 149.442 56.4689 156 50C143.256 46.2347 141.724 79.0848 128 72M71.3333 51.6667L71.6667 52.3333L71.3333 51.6667M99.3333 51.6667L99.6667 52.3333L99.3333 51.6667M74 55L75 59L79 58L79 56L74 55M95 55L96 56L95 55M98 55L99 56L98 55M94 56L95 57L94 56M89 57L90 58L89 57M92 57L89 61L92 57z"/>
<path style="fill:#465759; stroke:none;" d="M93 57L89 62L93 57z"/>
<path style="fill:#9f9b9b; stroke:none;" d="M161.667 57.3333L162.333 57.6667L161.667 57.3333z"/>
<path style="fill:#202726; stroke:none;" d="M93 58L86 64L86.9066 105L83.571 141L89 172L90 172L95 167L88.0394 137L91 101L92 101L92 112L93 112L92.5324 83.0039L93 58z"/>
<path style="fill:#9f9b9b; stroke:none;" d="M95 58L95 61L96 61L95 58z"/>
<path style="fill:#465759; stroke:none;" d="M162.333 58.6667L162.667 59.3333L162.333 58.6667z"/>
<path style="fill:#7e6b62; stroke:none;" d="M163 58L166 61L163 58z"/>
<path style="fill:#9f9b9b; stroke:none;" d="M43 64L40 62C33.7459 64.2478 28.545 70.1959 30 77L23 76L23 78L58 77L58 76L46 71L56 71C61.9596 63.0099 53.0687 63.4722 48 59L43 64z"/>
<path style="fill:#202726; stroke:none;" d="M163 59C164.297 65.4288 169.485 69.0404 173.406 73.9853C183.423 86.6204 199.016 99.2607 202 116L201 116L200 112L199 112L201 119L206 118C198.872 96.1302 182.367 71.811 163 59z"/>
<path style="fill:#9f9b9b; stroke:none;" d="M165 59L166 60L165 59M82.3333 60.6667L82.6667 61.3333L82.3333 60.6667M162 60L163 61L162 60M166 60L171 64L171 63L166 60M86 61L89 63L89 62L86 61z"/>
<path style="fill:#465759; stroke:none;" d="M93 61L94 62L93 61z"/>
<path style="fill:#9f9b9b; stroke:none;" d="M94 61L94 65L95 65L94 61z"/>
<path style="fill:#465759; stroke:none;" d="M166 61L167 62L166 61z"/>
<path style="fill:#9f9b9b; stroke:none;" d="M76 62L76 66L79 65L76 62M84 62L82 65L84 62z"/>
<path style="fill:#465759; stroke:none;" d="M163 62L164 63L163 62M167 62L168 63L167 62z"/>
<path style="fill:#7e6b62; stroke:none;" d="M84.6667 63.3333L85.3333 63.6667L84.6667 63.3333z"/>
<path style="fill:#465759; stroke:none;" d="M86 63L87 64L86 63M88 63L89 64L88 63z"/>
<path style="fill:#7e6b62; stroke:none;" d="M163 63L164 64L163 63M169 63L170 64L169 63z"/>
<path style="fill:#d2cacb; stroke:none;" d="M43 64L49 68L43 64z"/>
<path style="fill:#9f9b9b; stroke:none;" d="M64 64L65 65L64 64M70 64L68 72L69 72L71 70L70 73L75 70L75 69L71 69L70 64z"/>
<path style="fill:#465759; stroke:none;" d="M63 78L69 75L67 78L71 86L72 86L71 75L79 78C76.1811 82.3179 84.3238 93.7122 86 99L87 99L86 66L84 70L86 65C80.4757 63.8262 66.6663 73.7231 63 78z"/>
<path style="fill:#7e6b62; stroke:none;" d="M164 64L165 65L164 64M170 64L171 65L170 64z"/>
<path style="fill:#9f9b9b; stroke:none;" d="M172 65L176 67L172 65z"/>
<path style="fill:#7e6b62; stroke:none;" d="M81 65L82 66L81 65M84 70L86 65C83.6007 66.3064 81.6968 67.72 84 70z"/>
<path style="fill:#465759; stroke:none;" d="M93 65L93 69L94 69L93 65z"/>
<path style="fill:#9f9b9b; stroke:none;" d="M95 65L96 66L95 65z"/>
<path style="fill:#7e6b62; stroke:none;" d="M165 65L166 66L165 65M171 65L172 66L171 65z"/>
<path style="fill:#9f9b9b; stroke:none;" d="M79 66L80 67L79 66z"/>
<path style="fill:#7e6b62; stroke:none;" d="M80 66L81 67L80 66M166 66L167 67L166 66M172 66L173 67L172 66z"/>
<path style="fill:#9f9b9b; stroke:none;" d="M177 66L176 67C176.447 67.8936 176.595 69.5318 178 70C182.721 71.5738 186.495 72.326 190 77C191.893 79.5238 194.685 83.9212 191 83L192 87L191 87L189 82L187 83L182 76L183 73L180 74L175 67L174 67L193.254 92L205 112L206 111L204 110C204.584 106.613 202.719 98.5849 199 98C201.736 81.3291 190.662 72.066 177 66z"/>
<path style="fill:#d2cacb; stroke:none;" d="M55 67L56 68L55 67z"/>
<path style="fill:#9f9b9b; stroke:none;" d="M77 67L76 69L77 67z"/>
<path style="fill:#7e6b62; stroke:none;" d="M78 67L79 68L78 67z"/>
<path style="fill:#9f9b9b; stroke:none;" d="M164 67L165 68L164 67z"/>
<path style="fill:#465759; stroke:none;" d="M167 67L168 68L167 67z"/>
<path style="fill:#7e6b62; stroke:none;" d="M173 67L174 68L173 67z"/>
<path style="fill:#9f9b9b; stroke:none;" d="M72 68L73 69L72 68z"/>
<path style="fill:#7e6b62; stroke:none;" d="M77 68L78 69L77 68M168 68L169 69L168 68z"/>
<path style="fill:#d2cacb; stroke:none;" d="M37 69L37 72L40 72L40 69L37 69z"/>
<path style="fill:#9f9b9b; stroke:none;" d="M57 70L57 71L62 72L62 71C60.0399 70.3466 59.446 70 62 70L57 70z"/>
<path style="fill:#7e6b62; stroke:none;" d="M75 69L76 70L75 69z"/>
<path style="fill:#465759; stroke:none;" d="M94 69L95 70L94 69z"/>
<path style="fill:#7e6b62; stroke:none;" d="M169 69L170 70L169 69M74 70L75 71L74 70M80 70L76 74L83 72L80 70M84.3333 70.6667L84.6667 71.3333L84.3333 70.6667z"/>
<path style="fill:#465759; stroke:none;" d="M95 70C93.7155 79.0164 88.7761 87.3595 99 93L98 89L102 89L101 87C105.833 86.1935 105.845 82.8383 108 79L95 70z"/>
<path style="fill:#9f9b9b; stroke:none;" d="M165 70L165 73L167 72L167 71L165 70z"/>
<path style="fill:#465759; stroke:none;" d="M170 70L171 71L170 70M175 70L176 71L175 70z"/>
<path style="fill:#9f9b9b; stroke:none;" d="M63 71L63 74L66 73L63 71z"/>
<path style="fill:#7e6b62; stroke:none;" d="M72 71L73 72L72 71M75.6667 71.3333L76.3333 71.6667L75.6667 71.3333z"/>
<path style="fill:#9f9b9b; stroke:none;" d="M168 71L169 72L168 71z"/>
<path style="fill:#465759; stroke:none;" d="M171 71L172 72L171 71M176 71L177 72L176 71z"/>
<path style="fill:#d2cacb; stroke:none;" d="M32 72L33 73L32 72z"/>
<path style="fill:#7e6b62; stroke:none;" d="M166 72L165 75L166 75L167 75L166 72z"/>
<path style="fill:#465759; stroke:none;" d="M172 72L174 74L172 72M177 72L178 73L177 72z"/>
<path style="fill:#9f9b9b; stroke:none;" d="M68 73L69 74L68 73z"/>
<path style="fill:#7e6b62; stroke:none;" d="M83 73L83 76L85 75L85 74L83 73z"/>
<path style="fill:#465759; stroke:none;" d="M166 73L167 74L166 73z"/>
<path style="fill:#9f9b9b; stroke:none;" d="M168 73L169 74L168 73M172 73L173 74L172 73z"/>
<path style="fill:#465759; stroke:none;" d="M178 73L179 74L178 73z"/>
<path style="fill:#9f9b9b; stroke:none;" d="M65 74L66 75L65 74z"/>
<path style="fill:#7e6b62; stroke:none;" d="M66 74L67 75L66 74z"/>
<path style="fill:#9f9b9b; stroke:none;" d="M169 74L169 78L170 78L169 74M173 74L174 75L173 74z"/>
<path style="fill:#7e6b62; stroke:none;" d="M179 74L180 75L179 74M64 75L65 76L64 75M64 79L63 79L64 76L41 91L46 92L47 92L50 87L56 87L56 89L65 83L65 87C72.9372 86.9579 84.7928 96.1771 86 104L87 104L79 78L71 75L72 86L71 86L67 78L69 75L64 79z"/>
<path style="fill:#9f9b9b; stroke:none;" d="M165 75L163 80L165 75z"/>
<path style="fill:#7e6b62; stroke:none;" d="M174 75L175 76L174 75M180 75L181 76L180 75z"/>
<path style="fill:#9f9b9b; stroke:none;" d="M62 76L63 77L62 76z"/>
<path style="fill:#7e6b62; stroke:none;" d="M70 76L72 78L70 76M85 76L85 80L86 80L85 76M168 76L168 80L169 80L170 80L168 76z"/>
<path style="fill:#9f9b9b; stroke:none;" d="M172.333 76.6667L172.667 77.3333L172.333 76.6667M174 76L175 77L174 76z"/>
<path style="fill:#7e6b62; stroke:none;" d="M181 76L182 77L181 76z"/>
<path style="fill:#9f9b9b; stroke:none;" d="M60 77L61 78L60 77M108 77L108 78L120 82L108 77M175 77L179 82L175 77z"/>
<path style="fill:#465759; stroke:none;" d="M181 77L182 78L181 77z"/>
<path style="fill:#9f9b9b; stroke:none;" d="M58.6667 78.3333L59.3333 78.6667L58.6667 78.3333M63 78L64 79L63 78M65 78L66 79L65 78z"/>
<path style="fill:#465759; stroke:none;" d="M168 78L169 79L168 78z"/>
<path style="fill:#7e6b62; stroke:none;" d="M176 78L177 79L176 78z"/>
<path style="fill:#465759; stroke:none;" d="M182 78L183 79L182 78z"/>
<path style="fill:#9f9b9b; stroke:none;" d="M57 79L58 80L57 79z"/>
<path style="fill:#7e6b62; stroke:none;" d="M70.3333 79.6667L70.6667 80.3333L70.3333 79.6667M177 79L178 80L177 79z"/>
<path style="fill:#465759; stroke:none;" d="M178 79L183 86L181 84L178 79z"/>
<path style="fill:#7e6b62; stroke:none;" d="M183 79L184 80L183 79z"/>
<path style="fill:#9f9b9b; stroke:none;" d="M55 80L56 81L55 80z"/>
<path style="fill:#465759; stroke:none;" d="M109 80L108 82L110 82L109 80z"/>
<path style="fill:#9f9b9b; stroke:none;" d="M162 80L163 81L162 80M168 80L169 90L168 90L168 88L167 88L168 118L169 118L170 80L168 80z"/>
<path style="fill:#7e6b62; stroke:none;" d="M184 80L185 81L184 80z"/>
<path style="fill:#9f9b9b; stroke:none;" d="M188 80L189 81L188 80M40 81L41 82L40 81M42 81L42 82L44 83L41 86L40 86L38 85C38.0772 82.0498 36.5901 82.251 36 85L32 82L33 89C30.1016 90.2783 29.517 92.2498 33 93L33 97L24 95L21 101L26 98L16 107L20 101L16 101L17 104L8 106L2 104C1.43783 105.686 -1.08392 110.013 0 112C1.58986 114.915 8.69173 116.635 10 115L10 119L11 119L10 114L12 116L13 116L14 113L15 113L15 116C17.8073 115.9 19.4885 119.22 20 115L23 117L24 111C33.7062 110.068 39.4325 111.166 38 122L39 122L39 120L40 120C37.6755 128.786 39.8378 138.525 48 144C45.9807 138.584 36.0618 119.514 45 118L45 112L49 112L69.8835 146L84 181C90.8171 172.819 80.1304 163.84 78 156L84 159L80 133L81 133L81 136L82 136C85.3038 126.889 84.7485 116.418 83 107L86 108C85.992 97.6555 76.3002 86.3552 65 87L65 83L56 89L56 87L50 87L47 92L46 92L41 91L43 88L39 90L45 81L42 81M53.6667 81.3333L54.3333 81.6667L53.6667 81.3333z"/>
<path style="fill:#7e6b62; stroke:none;" d="M127 81L128 82L127 81z"/>
<path style="fill:#d2cacb; stroke:none;" d="M140 81L141 82L140 81z"/>
<path style="fill:#7e6b62; stroke:none;" d="M169.333 81.6667L169.667 82.3333L169.333 81.6667M185 81L186 82L185 81z"/>
<path style="fill:#9f9b9b; stroke:none;" d="M190.333 81.6667L190.667 82.3333L190.333 81.6667M47.6667 82.3333L48.3333 82.6667L47.6667 82.3333M51.6667 82.3333L52.3333 82.6667L51.6667 82.3333M152.333 82.6667L152.667 83.3333L152.333 82.6667z"/>
<path style="fill:#7e6b62; stroke:none;" d="M179 82L180 83L179 82z"/>
<path style="fill:#9f9b9b; stroke:none;" d="M213 82C210.321 91.7202 209.489 105.627 214 115L212 115L219 131L220 131L218 123L218 122L218 119C220.39 115.569 218.867 111.998 218.689 108C218.269 98.5484 219.883 90.6743 215 82L213 82M43 87L43 88L51 84L43 87z"/>
<path style="fill:#d2cacb; stroke:none;" d="M135 83L136 84L135 83M133 85L133 86L146 86L133 85M141 83L141 84L144 84L141 83M145 83L146 84L145 83z"/>
<path style="fill:#9f9b9b; stroke:none;" d="M177 83L178 84L177 83z"/>
<path style="fill:#7e6b62; stroke:none;" d="M181 83L182 84L181 83z"/>
<path style="fill:#465759; stroke:none;" d="M186 83L187 84L186 83z"/>
<path style="fill:#9f9b9b; stroke:none;" d="M53 84L54 85L53 84M173 84L174 85L173 84z"/>
<path style="fill:#465759; stroke:none;" d="M187 84L188 85L187 84z"/>
<path style="fill:#9f9b9b; stroke:none;" d="M51 85L54 87L54 86L51 85M55 85L56 86L55 85z"/>
<path style="fill:#d2cacb; stroke:none;" d="M147 85L150 89L150 88L147 85z"/>
<path style="fill:#9f9b9b; stroke:none;" d="M176 85C175.281 89.4393 177.059 91.9786 181 94L176 85z"/>
<path style="fill:#7e6b62; stroke:none;" d="M183 85L182 88L185 86L183 85M188 85L189 86L188 85z"/>
<path style="fill:#9f9b9b; stroke:none;" d="M48 86L49 87L48 86z"/>
<path style="fill:#d2cacb; stroke:none;" d="M129 86L130 87L129 86z"/>
<path style="fill:#202726; stroke:none;" d="M182 86L183 87L182 86z"/>
<path style="fill:#7e6b62; stroke:none;" d="M94 87L94 88L97 88L94 87z"/>
<path style="fill:#465759; stroke:none;" d="M122 87L123 88L122 87M125.667 87.3333L126.333 87.6667L125.667 87.3333z"/>
<path style="fill:#d2cacb; stroke:none;" d="M135 87L139 89L139 88L135 87z"/>
<path style="fill:#7e6b62; stroke:none;" d="M144 87L144 88L146 91L155 90L155 89L147 90L144 87M168 87L169 88L168 87z"/>
<path style="fill:#465759; stroke:none;" d="M183 87L184 88L183 87z"/>
<path style="fill:#9f9b9b; stroke:none;" d="M184 87L187 90L184 87z"/>
<path style="fill:#465759; stroke:none;" d="M185 87L186 88L185 87z"/>
<path style="fill:#d2cacb; stroke:none;" d="M36.6667 88.3333L37.3333 88.6667L36.6667 88.3333z"/>
<path style="fill:#9f9b9b; stroke:none;" d="M116 88L117 89L116 88z"/>
<path style="fill:#465759; stroke:none;" d="M127 88L127 89L132 90L127 88z"/>
<path style="fill:#7e6b62; stroke:none;" d="M131 88L134 90L131 88z"/>
<path style="fill:#d2cacb; stroke:none;" d="M140 88L140 89L144 89L140 88z"/>
<path style="fill:#465759; stroke:none;" d="M145 88L146 89L145 88M168 88L169 89L168 88z"/>
<path style="fill:#202726; stroke:none;" d="M183 88L184 89L183 88z"/>
<path style="fill:#7e6b62; stroke:none;" d="M184 88L183 90L184 88z"/>
<path style="fill:#465759; stroke:none;" d="M190 88L191 89L190 88z"/>
<path style="fill:#d2cacb; stroke:none;" d="M192 88L193 89L192 88M34 89L35 90L34 89z"/>
<path style="fill:#9f9b9b; stroke:none;" d="M77.6667 89.3333L78.3333 89.6667L77.6667 89.3333z"/>
<path style="fill:#7e6b62; stroke:none;" d="M120 89L121 90L120 89M129.667 89.3333L130.333 89.6667L129.667 89.3333z"/>
<path style="fill:#465759; stroke:none;" d="M134 89L135 90L134 89z"/>
<path style="fill:#7e6b62; stroke:none;" d="M135 91L145 91C141.88 89.5992 137.491 88.26 135 91z"/>
<path style="fill:#9f9b9b; stroke:none;" d="M147.667 89.3333L148.333 89.6667L147.667 89.3333z"/>
<path style="fill:#7e6b62; stroke:none;" d="M168 89L169 90L168 89z"/>
<path style="fill:#465759; stroke:none;" d="M184 89L186 95L187 95L184 89z"/>
<path style="fill:#7e6b62; stroke:none;" d="M191 89L192 90L191 89z"/>
<path style="fill:#d2cacb; stroke:none;" d="M36.6667 90.3333L37.3333 90.6667L36.6667 90.3333z"/>
<path style="fill:#7e6b62; stroke:none;" d="M122 90L122 91L126 91L122 90z"/>
<path style="fill:#d2cacb; stroke:none;" d="M128 90L129 91L128 90z"/>
<path style="fill:#9f9b9b; stroke:none;" d="M136 90L137 91L136 90z"/>
<path style="fill:#465759; stroke:none;" d="M149 90L150 91L149 90z"/>
<path style="fill:#9f9b9b; stroke:none;" d="M152.667 90.3333L153.333 90.6667L152.667 90.3333M158.667 90.3333L159.333 90.6667L158.667 90.3333z"/>
<path style="fill:#7e6b62; stroke:none;" d="M185 90L186 91L185 90z"/>
<path style="fill:#d2cacb; stroke:none;" d="M186 90L189 95L190 95L186 90z"/>
<path style="fill:#7e6b62; stroke:none;" d="M187 90L188 91L187 90M192 90L193 91L192 90M39 91L33 95L33 96L38 94L37 97C38.5867 97.5146 42.1153 97.3545 39 96L39 95L41 95L41 94L39 91z"/>
<path style="fill:#465759; stroke:none;" d="M93 91C93.0031 95.0596 92.4931 98.4709 96 101L93 91z"/>
<path style="fill:#7e6b62; stroke:none;" d="M127 91L128 92L127 91z"/>
<path style="fill:#d2cacb; stroke:none;" d="M133 91L133 92L146 92L133 91z"/>
<path style="fill:#7e6b62; stroke:none;" d="M184 91L185 92L184 91M188 91L189 92L188 91z"/>
<path style="fill:#9f9b9b; stroke:none;" d="M227 91L231 113L224 99L222 99L222.83 117L224 143L222 142C222.335 148.505 219.648 156.65 224 162C219.353 165.352 221 172.781 221 178L222 178L223 176C225.333 178.832 229.11 179.713 231.258 183.019C237.294 192.307 232.06 202.024 230 211L229 211L228 208L227 208L222 213L224 218L218 225L285 225C293.441 225 306.056 227.356 313.996 224.397C320.647 221.917 334.998 206.506 337.397 200C340.341 192.014 338 179.485 338 171C309.562 172.224 280.476 188.609 252 187L252 184L265 180L264 177L262 178L261 174L264 175L257 161L255 163L245.75 141L239 108L238 108L237 119L236 119C237.764 109.394 236.144 96.5888 227 91z"/>
<path style="fill:#d2cacb; stroke:none;" d="M34 92L35 93L34 92z"/>
<path style="fill:#7e6b62; stroke:none;" d="M43 92L43 94L45 92L43 92M129 92L130 93L129 92M186 92L187 93L186 92z"/>
<path style="fill:#465759; stroke:none;" d="M189 92L190 93L189 92M193 92L194 93L193 92M100 93L101 94L100 93z"/>
<path style="fill:#7e6b62; stroke:none;" d="M185 93L186 94L185 93M194 93L195 94L194 93M127 94L127 95L139 97L139 96L127 94z"/>
<path style="fill:#d2cacb; stroke:none;" d="M140 94L141 95L140 94z"/>
<path style="fill:#9f9b9b; stroke:none;" d="M96 95L97 96L96 95z"/>
<path style="fill:#7e6b62; stroke:none;" d="M120 95L121 96L120 95z"/>
<path style="fill:#465759; stroke:none;" d="M128 95L129 96L128 95z"/>
<path style="fill:#9f9b9b; stroke:none;" d="M182 95L183 96L182 95z"/>
<path style="fill:#7e6b62; stroke:none;" d="M186 95L188 100L189 100L186 95z"/>
<path style="fill:#d2cacb; stroke:none;" d="M190 95L189 96L192 98L190 95z"/>
<path style="fill:#7e6b62; stroke:none;" d="M191 95L192 96L191 95z"/>
<path style="fill:#465759; stroke:none;" d="M195 95L196 96L195 95z"/>
<path style="fill:#9f9b9b; stroke:none;" d="M206 95L208 97L206 95z"/>
<path style="fill:#d2cacb; stroke:none;" d="M27 98L30 97L27 98z"/>
<path style="fill:#7e6b62; stroke:none;" d="M31.6667 96.3333L32.3333 96.6667L31.6667 96.3333z"/>
<path style="fill:#9f9b9b; stroke:none;" d="M106 98L109 97L106 98z"/>
<path style="fill:#7e6b62; stroke:none;" d="M145.667 96.3333L146.333 96.6667L145.667 96.3333M148 96L148 97L152 97L148 96z"/>
<path style="fill:#465759; stroke:none;" d="M192 96L193 97L192 96z"/>
<path style="fill:#7e6b62; stroke:none;" d="M196 96L197 97L196 96z"/>
<path style="fill:#465759; stroke:none;" d="M104 97L105 98L104 97z"/>
<path style="fill:#9f9b9b; stroke:none;" d="M135 97L136 98L135 97z"/>
<path style="fill:#7e6b62; stroke:none;" d="M29 98L31 103L26 100L24 107L34 107L34 106L32 101L29 98z"/>
<path style="fill:#d2cacb; stroke:none;" d="M192 98L194 100L192 98z"/>
<path style="fill:#7e6b62; stroke:none;" d="M193 98L194 99L193 98M197 98L198 99L197 98z"/>
<path style="fill:#9f9b9b; stroke:none;" d="M17 99L17 101L19 101L19 99L17 99M171 99L172 100L171 99z"/>
<path style="fill:#465759; stroke:none;" d="M194 99L195 100L194 99z"/>
<path style="fill:#7e6b62; stroke:none;" d="M111 100L112 101L111 100z"/>
<path style="fill:#465759; stroke:none;" d="M198 100L199 101L198 100M91.3333 101.667L91.6667 102.333L91.3333 101.667z"/>
<path style="fill:#7e6b62; stroke:none;" d="M189.333 101.667L189.667 102.333L189.333 101.667z"/>
<path style="fill:#d2cacb; stroke:none;" d="M194 101L196 103L194 101z"/>
<path style="fill:#7e6b62; stroke:none;" d="M195 101L196 102L195 101z"/>
<path style="fill:#9f9b9b; stroke:none;" d="M24 103L24 104L28 104L24 103z"/>
<path style="fill:#465759; stroke:none;" d="M196 102L197 103L196 102z"/>
<path style="fill:#7e6b62; stroke:none;" d="M91 103L92 104L91 103z"/>
<path style="fill:#9f9b9b; stroke:none;" d="M171 103L172 104L171 103M183.667 103.333L184.333 103.667L183.667 103.333z"/>
<path style="fill:#7e6b62; stroke:none;" d="M21 104L15 112L20 115L19 108L23 107L21 104z"/>
<path style="fill:#465759; stroke:none;" d="M86 104L86 109L87 109L86 104M88 104L88 113L89 113L88 104z"/>
<path style="fill:#9f9b9b; stroke:none;" d="M91 104L92 105L91 104z"/>
<path style="fill:#7e6b62; stroke:none;" d="M93 104L92 116L94 121L93 121L93 119L92 119C93.5452 126.659 101.719 134.525 109 137L97.1435 117L93 104z"/>
<path style="fill:#9f9b9b; stroke:none;" d="M176.333 104.667L176.667 105.333L176.333 104.667z"/>
<path style="fill:#7e6b62; stroke:none;" d="M191 104L193 107L191 104z"/>
<path style="fill:#d2cacb; stroke:none;" d="M196 104L197 105L196 104z"/>
<path style="fill:#7e6b62; stroke:none;" d="M197 104L198 105L197 104z"/>
<path style="fill:#9f9b9b; stroke:none;" d="M205 104L206 105L205 104z"/>
<path style="fill:#7e6b62; stroke:none;" d="M91 105L90 112L91 112L91 105M201 105L202 106L201 105z"/>
<path style="fill:#9f9b9b; stroke:none;" d="M237 105L238 106L237 105M178 106L181 108L178 106z"/>
<path style="fill:#7e6b62; stroke:none;" d="M198 106L199 107L198 106z"/>
<path style="fill:#9f9b9b; stroke:none;" d="M206 106L207 112L208 112L206 106z"/>
<path style="fill:#7e6b62; stroke:none;" d="M83 107L84 120L85 120L85 107L83 107z"/>
<path style="fill:#465759; stroke:none;" d="M90 107L90 110L91 110L90 107z"/>
<path style="fill:#7e6b62; stroke:none;" d="M112 107L114 109L112 107M167 107L168 108L167 107M193 107L201 118L196 109L199 110L199 109L193 107z"/>
<path style="fill:#465759; stroke:none;" d="M167 108L167 111L168 111L167 108z"/>
<path style="fill:#7e6b62; stroke:none;" d="M199 108L200 109L199 108z"/>
<path style="fill:#465759; stroke:none;" d="M202 108L203 109L202 108z"/>
<path style="fill:#7e6b62; stroke:none;" d="M24 111L23 117L20 115L19 118L15 113L14 113L12 117L14 121L19 120L19 124L20 124L20 121L21 121L25 134L28 130L29 130L29 132L30 132L28 128L31 129C29.7835 124.752 30.1251 122.363 34 120C35.3447 124.645 36.9038 150 34 150L47 184L48 184L38 134L42 136C38.8649 129.552 38.8245 126.947 40 120L39 120L39 122C38 111.228 35.0312 109.141 24 111z"/>
<path style="fill:#465759; stroke:none;" d="M196 109L198 114L201 110L196 109z"/>
<path style="fill:#7e6b62; stroke:none;" d="M204 109L205 110L204 109M22 110L23 113L22 110z"/>
<path style="fill:#465759; stroke:none;" d="M91 110L92 116L93 116L91 110z"/>
<path style="fill:#9f9b9b; stroke:none;" d="M183.333 110.667L183.667 111.333L183.333 110.667z"/>
<path style="fill:#465759; stroke:none;" d="M203 110L204 111L203 110z"/>
<path style="fill:#7e6b62; stroke:none;" d="M39 111L40 112L39 111z"/>
<path style="fill:#465759; stroke:none;" d="M85 111L85 118L86 118L85 111z"/>
<path style="fill:#202726; stroke:none;" d="M167 111L168 112L167 111z"/>
<path style="fill:#7e6b62; stroke:none;" d="M200.333 111.667L200.667 112.333L200.333 111.667M205 111L204 113L206 113L205 111z"/>
<path style="fill:#d2cacb; stroke:none;" d="M0 112C0 118.693 -1.59969 126.336 4 131L10 115L8 117L0 112z"/>
<path style="fill:#7e6b62; stroke:none;" d="M45 112L45 118C35.7166 117.847 45.6912 139.406 48 144L43 137L42 137L51 153L46.2438 132.155L48 119L49 119L53 127L51 117L58 123L49 112L45 112z"/>
<path style="fill:#9f9b9b; stroke:none;" d="M90 112L90 120L91 120L90 112z"/>
<path style="fill:#465759; stroke:none;" d="M167.333 112.667L167.667 113.333L167.333 112.667z"/>
<path style="fill:#d2cacb; stroke:none;" d="M192 112L194 115L192 112z"/>
<path style="fill:#465759; stroke:none;" d="M201 112L201 116L202 116L201 112z"/>
<path style="fill:#9f9b9b; stroke:none;" d="M206 112L206 120L207 120L206 112z"/>
<path style="fill:#d2cacb; stroke:none;" d="M235.333 112.667L235.667 113.333L235.333 112.667z"/>
<path style="fill:#202726; stroke:none;" d="M91 113L91 122L92 122L91 113z"/>
<path style="fill:#465759; stroke:none;" d="M204 113L205 114L204 113z"/>
<path style="fill:#d2cacb; stroke:none;" d="M10 114L11 117L12 117L13 114L10 114z"/>
<path style="fill:#9f9b9b; stroke:none;" d="M166.333 114.667L166.667 115.333L166.333 114.667z"/>
<path style="fill:#202726; stroke:none;" d="M167 114L167 118L168 118L167 114z"/>
<path style="fill:#9f9b9b; stroke:none;" d="M171 114L172 115L171 114z"/>
<path style="fill:#465759; stroke:none;" d="M199 114L200 115L199 114z"/>
<path style="fill:#7e6b62; stroke:none;" d="M205.333 114.667L205.667 115.333L205.333 114.667z"/>
<path style="fill:#9f9b9b; stroke:none;" d="M208.667 114.333L209.333 114.667L208.667 114.333z"/>
<path style="fill:#d2cacb; stroke:none;" d="M231 114L235 132L236 132L231 114z"/>
<path style="fill:#9f9b9b; stroke:none;" d="M93 115L94 116L93 115M173 115L170 121L167 120C168.574 123.545 184.333 122.181 185 118L173 115z"/>
<path style="fill:#7e6b62; stroke:none;" d="M166 116L167 117L166 116z"/>
<path style="fill:#d2cacb; stroke:none;" d="M192 116L192 119L195 117L192 116z"/>
<path style="fill:#465759; stroke:none;" d="M200 116L201 117L200 116M205 116L206 117L205 116z"/>
<path style="fill:#9f9b9b; stroke:none;" d="M209.667 116.333L210.333 116.667L209.667 116.333z"/>
<path style="fill:#465759; stroke:none;" d="M12 117L9 123L12 121L10 128L8 131L5 130L6 134L3 133L0 138L2 144C-1.52541 144.588 0 153.811 0 157C0 168.893 -4.10475 189.815 0.476852 200.736C2.39583 205.31 8.61861 206.134 11 211L0 209L0 225L18 223L18 222L15 220L17 221L17 220L17.966 174.996L15.8897 155L18 142L21 139C16.193 137.445 18.3561 130.855 19 132L20 132L12 117z"/>
<path style="fill:#9f9b9b; stroke:none;" d="M13 117L14 118L13 117z"/>
<path style="fill:#465759; stroke:none;" d="M51 117L53 127L49 119L48 119L45.74 132.155L51 153L38 134L47 170L48 170L41 139L42 139L52.1389 161L57 168L57 173L58 173C60.4824 165.664 59.5247 155.814 54 150L54 149L56 145L59 147C60.4897 137.972 56.8449 129.409 54 121C64.2977 133.532 67.9578 150.273 74 165L75 165C71.2274 151.179 64.7157 123.966 51 117M87 117L87 123L88 123L87 117M92 117L93 121L94 121L92 117M166 117L166 120L168 119L168 118L166 117z"/>
<path style="fill:#d2cacb; stroke:none;" d="M192 123L200 118C195.996 116.949 193.817 119.689 192 123z"/>
<path style="fill:#7e6b62; stroke:none;" d="M206 117L207 118L206 117z"/>
<path style="fill:#465759; stroke:none;" d="M89.3333 118.667L89.6667 119.333L89.3333 118.667z"/>
<path style="fill:#7e6b62; stroke:none;" d="M198 118L199 119L198 118z"/>
<path style="fill:#465759; stroke:none;" d="M199 118L199 121L201 121L201 118L199 118M205 118L206 119L205 118z"/>
<path style="fill:#9f9b9b; stroke:none;" d="M8 119L6 123L7 123L8 119z"/>
<path style="fill:#7e6b62; stroke:none;" d="M10 119L11 120L10 119z"/>
<path style="fill:#9f9b9b; stroke:none;" d="M16 119C15.2428 125.459 20.4729 132.047 26 135L32 146L33 146L22 131L20 128L16 119M165 119L165 122L166 122L165 119z"/>
<path style="fill:#7e6b62; stroke:none;" d="M167 119L168 120L167 119M196 119L197 120L196 119z"/>
<path style="fill:#202726; stroke:none;" d="M197.667 119.333L198.333 119.667L197.667 119.333z"/>
<path style="fill:#7e6b62; stroke:none;" d="M201 119L202 120L201 119z"/>
<path style="fill:#9f9b9b; stroke:none;" d="M202 119L202 120L205 120L202 119z"/>
<path style="fill:#d2cacb; stroke:none;" d="M205 119L206 120L205 119z"/>
<path style="fill:#202726; stroke:none;" d="M207 119C201.064 121.234 196.844 121.014 195 128L196 128C207.329 114.389 218.076 134.486 219 145L220 145C219.761 133.443 215.857 126.271 207 119z"/>
<path style="fill:#7e6b62; stroke:none;" d="M208 119L212 122L212 121L208 119z"/>
<path style="fill:#9f9b9b; stroke:none;" d="M209 119L210 120L209 119z"/>
<path style="fill:#7e6b62; stroke:none;" d="M237 119L237 122L238 122L237 119z"/>
<path style="fill:#9f9b9b; stroke:none;" d="M2 120L3 121L2 120M9 120L10 121L9 120z"/>
<path style="fill:#7e6b62; stroke:none;" d="M12 120L13 121L12 120z"/>
<path style="fill:#465759; stroke:none;" d="M18 120L19 121L18 120M31 129L28 128L30 132L29 132L29 130L28 130L26 133L33 146L35 145L35 146L37 150L34 120C29.5559 121.769 29.1245 124.855 31 129z"/>
<path style="fill:#7e6b62; stroke:none;" d="M89 120L89 122L91 122L91 120L89 120z"/>
<path style="fill:#465759; stroke:none;" d="M95 120L96 121L95 120z"/>
<path style="fill:#7e6b62; stroke:none;" d="M129 120L130 121L129 120z"/>
<path style="fill:#202726; stroke:none;" d="M166.333 120.667L166.667 121.333L166.333 120.667z"/>
<path style="fill:#d2cacb; stroke:none;" d="M191 120L192 121L191 120z"/>
<path style="fill:#202726; stroke:none;" d="M195 120L196 121L195 120z"/>
<path style="fill:#465759; stroke:none;" d="M196 120L197 121L196 120z"/>
<path style="fill:#9f9b9b; stroke:none;" d="M197 120L197 122L199 120L197 120z"/>
<path style="fill:#465759; stroke:none;" d="M203.667 120.333L204.333 120.667L203.667 120.333M208 120L209 121L208 120z"/>
<path style="fill:#9f9b9b; stroke:none;" d="M210.667 120.333L211.333 120.667L210.667 120.333z"/>
<path style="fill:#d2cacb; stroke:none;" d="M215 120L216 121L215 120z"/>
<path style="fill:#7e6b62; stroke:none;" d="M9 121L10 122L9 121M11 121C8.09735 123.875 1.54429 130.598 6 134L5 130L8 131L10 128L11 121z"/>
<path style="fill:#465759; stroke:none;" d="M20 121L25 133L26 133L20 121z"/>
<path style="fill:#202726; stroke:none;" d="M54 121L59 147L56 145L54 149L54 150C58.7267 156.837 60.0493 165.059 58 173L57 173L57 168L52.8333 161L42 139L41 139L50 176C44.7941 181.339 52.2367 197.786 54 204L53 204L37.4398 170L32 154C33.1871 148.45 30.9531 145.546 28 141L27 141L27.6196 162.985L38.4167 188L42 204L42 205L42 206C47.0386 210.422 47.9238 214.699 49 221L45 220L45 225L88 225L106.737 224.397L112 214C117.743 213.207 120.344 194.385 117 190L108 201L107 201L104 207L104 202L88 205L88 207L91 215L85 203C86.9217 185.779 74.8018 168.687 69.5162 153C65.9848 142.519 62.6895 128.449 54 121z"/>
<path style="fill:#9f9b9b; stroke:none;" d="M183 121L183 124L184 124L183 121z"/>
<path style="fill:#465759; stroke:none;" d="M194 121L193 123L194 121z"/>
<path style="fill:#9f9b9b; stroke:none;" d="M195.333 121.667L195.667 122.333L195.333 121.667z"/>
<path style="fill:#d2cacb; stroke:none;" d="M196 121L197 122L196 121z"/>
<path style="fill:#465759; stroke:none;" d="M209 121L210 122L209 121z"/>
<path style="fill:#9f9b9b; stroke:none;" d="M212 121L214 123L212 121M1.33333 122.667L1.66667 123.333L1.33333 122.667M8 122L9 123L8 122z"/>
<path style="fill:#7e6b62; stroke:none;" d="M15 122L16 123L15 122M84 122L84 126L85 126L84 122z"/>
<path style="fill:#9f9b9b; stroke:none;" d="M89 122L89 130L90 130L89 122z"/>
<path style="fill:#465759; stroke:none;" d="M90 122L92 124L92 122L90 122z"/>
<path style="fill:#7e6b62; stroke:none;" d="M131 122L132 123L131 122M165 122L166 123L165 122z"/>
<path style="fill:#465759; stroke:none;" d="M166 122L165 124L167 124L166 122z"/>
<path style="fill:#202726; stroke:none;" d="M194 122C188.705 130.36 188.229 139.46 190 149L191 149L194 122z"/>
<path style="fill:#7e6b62; stroke:none;" d="M196 122L197 123L196 122z"/>
<path style="fill:#465759; stroke:none;" d="M211 122L217 128L211 122z"/>
<path style="fill:#7e6b62; stroke:none;" d="M236 122L236 126L237 126L236 122z"/>
<path style="fill:#9f9b9b; stroke:none;" d="M4 123L2 126L2 129L3 129L4 123z"/>
<path style="fill:#202726; stroke:none;" d="M90 123L90 136L91 136L90 123z"/>
<path style="fill:#d2cacb; stroke:none;" d="M148 123L148 127L149 127L150 123L148 123M191 123L189 127L190 127L191 123z"/>
<path style="fill:#465759; stroke:none;" d="M195 123L196 124L195 123z"/>
<path style="fill:#7e6b62; stroke:none;" d="M204 123L205 125L202 124L202 125L209 131L212 130L207 123L204 123z"/>
<path style="fill:#9f9b9b; stroke:none;" d="M205 123L206 124L205 123z"/>
<path style="fill:#465759; stroke:none;" d="M207 123L208 124L207 123z"/>
<path style="fill:#7e6b62; stroke:none;" d="M214 123L214 125L216 125L214 123z"/>
<path style="fill:#9f9b9b; stroke:none;" d="M7 124L8 125L7 124z"/>
<path style="fill:#7e6b62; stroke:none;" d="M16 124L17 125L16 124M58 124L59 125L58 124M91.3333 124.667L91.6667 125.333L91.3333 124.667M133 124L135 126L133 124z"/>
<path style="fill:#d2cacb; stroke:none;" d="M144.667 124.333L145.333 124.667L144.667 124.333z"/>
<path style="fill:#202726; stroke:none;" d="M165.333 124.667L165.667 125.333L165.333 124.667z"/>
<path style="fill:#7e6b62; stroke:none;" d="M166 124L167 125L166 124M194.667 124.333L195.333 124.667L194.667 124.333z"/>
<path style="fill:#465759; stroke:none;" d="M198 124L197 126L198 124z"/>
<path style="fill:#7e6b62; stroke:none;" d="M199.667 124.333L200.333 124.667L199.667 124.333z"/>
<path style="fill:#9f9b9b; stroke:none;" d="M196 152L194 146C194 166.417 193.005 190.576 205 208L203 207L203 210C205.718 207.948 210.074 204.237 207 201C207.424 194.599 201.706 181.427 198 176L202 178L200 176L200 167L202 175C207.804 175.14 211.305 176.847 212 183C215.968 185.318 215.961 188.682 216 193L217 193L217 190L218 190L218 192L219 192C217.432 186.978 215.425 181.277 215.123 176.004C214.752 169.533 218.799 163.623 212 159L213 161L212 161L206 152L212 154L214 153L217 156L216 150C209.344 149.976 206.486 148.791 205 142L214 143C210.468 137.367 205.015 130.871 198 134C198.241 128.646 202.268 127.792 207 128C202.498 123.089 196.665 124.043 195.167 131C194.246 135.275 196.686 142.927 197.833 147C198.616 149.779 198.238 150.556 196 152z"/>
<path style="fill:#465759; stroke:none;" d="M203.667 124.333L204.333 124.667L203.667 124.333z"/>
<path style="fill:#9f9b9b; stroke:none;" d="M206 124L206 125L215 135L209 124L206 124z"/>
<path style="fill:#d2cacb; stroke:none;" d="M207 124L208 125L207 124z"/>
<path style="fill:#465759; stroke:none;" d="M209 124L211 126L209 124z"/>
<path style="fill:#7e6b62; stroke:none;" d="M20 125L21 126L20 125M59.3333 125.667L59.6667 126.333L59.3333 125.667z"/>
<path style="fill:#9f9b9b; stroke:none;" d="M164.333 125.667L164.667 126.333L164.333 125.667M166 125L170 128L166 125z"/>
<path style="fill:#7e6b62; stroke:none;" d="M191 125L192 126L191 125z"/>
<path style="fill:#9f9b9b; stroke:none;" d="M194.333 125.667L194.667 126.333L194.333 125.667z"/>
<path style="fill:#465759; stroke:none;" d="M195 125L196 126L195 125z"/>
<path style="fill:#d2cacb; stroke:none;" d="M209 125L210 126L209 125z"/>
<path style="fill:#9f9b9b; stroke:none;" d="M6 126L7 127L6 126z"/>
<path style="fill:#7e6b62; stroke:none;" d="M17 126L18 127L17 126z"/>
<path style="fill:#465759; stroke:none;" d="M84 126L84 131L85 131L84 126M86 126L86 136L87 136L86 126M165 126L163 136L164 136L165 126M191 126L192 127L191 126z"/>
<path style="fill:#7e6b62; stroke:none;" d="M196 126L197 127L196 126z"/>
<path style="fill:#d2cacb; stroke:none;" d="M210 126L212 128L210 126z"/>
<path style="fill:#7e6b62; stroke:none;" d="M211 126L212 127L211 126M216 126L217 127L216 126M237.333 126.667L237.667 127.333L237.333 126.667z"/>
<path style="fill:#d2cacb; stroke:none;" d="M20 127L21 128L20 127z"/>
<path style="fill:#7e6b62; stroke:none;" d="M21 127L22 128L21 127M60 127L61 128L60 127M83 127L84 128L83 127z"/>
<path style="fill:#465759; stroke:none;" d="M99 127L100 128L99 127z"/>
<path style="fill:#d2cacb; stroke:none;" d="M133.667 127.333L134.333 127.667L133.667 127.333z"/>
<path style="fill:#7e6b62; stroke:none;" d="M136 127L141 132L136 127M190 127L191 128L190 127M193.667 127.333L194.333 127.667L193.667 127.333z"/>
<path style="fill:#d2cacb; stroke:none;" d="M197 133L198 133C201.559 128.968 204.955 129.078 210 130C205.298 126.668 198.9 126.966 197 133z"/>
<path style="fill:#7e6b62; stroke:none;" d="M212 127L213 128L212 127z"/>
<path style="fill:#9f9b9b; stroke:none;" d="M0 128L0 137L1 137L4 132L0 128M5 128L6 129L5 128z"/>
<path style="fill:#7e6b62; stroke:none;" d="M18 128L19 129L18 128z"/>
<path style="fill:#465759; stroke:none;" d="M26 128L28 130L26 128M44 128L45 129L44 128M88.3333 128.667L88.6667 129.333L88.3333 128.667z"/>
<path style="fill:#7e6b62; stroke:none;" d="M165 128L166 129L165 128z"/>
<path style="fill:#9f9b9b; stroke:none;" d="M165 129L168 135L173 130L169 128L165 129M175 128L176 129L175 128z"/>
<path style="fill:#d2cacb; stroke:none;" d="M188 128L189 129L188 128z"/>
<path style="fill:#465759; stroke:none;" d="M190 128L191 129L190 128z"/>
<path style="fill:#9f9b9b; stroke:none;" d="M193 128L193 133L194 133L193 128z"/>
<path style="fill:#465759; stroke:none;" d="M194 128L194 135L195 135L196 128L194 128z"/>
<path style="fill:#d2cacb; stroke:none;" d="M196 128L197 129L196 128z"/>
<path style="fill:#9f9b9b; stroke:none;" d="M208 128L209 129L208 128z"/>
<path style="fill:#465759; stroke:none;" d="M213 128L214 129L213 128M217 128L219 134L217 128z"/>
<path style="fill:#9f9b9b; stroke:none;" d="M220 128L221 129L220 128M4 129L5 130L4 129z"/>
<path style="fill:#7e6b62; stroke:none;" d="M19 129L20 130L19 129M61 129L62 130L61 129z"/>
<path style="fill:#d2cacb; stroke:none;" d="M151.333 129.667L151.667 130.333L151.333 129.667z"/>
<path style="fill:#9f9b9b; stroke:none;" d="M163 129L164 130L163 129z"/>
<path style="fill:#7e6b62; stroke:none;" d="M195 129L196 130L195 129z"/>
<path style="fill:#9f9b9b; stroke:none;" d="M201 129L202 130L201 129z"/>
<path style="fill:#465759; stroke:none;" d="M199 131L199 132L203 132L204 130L199 131z"/>
<path style="fill:#202726; stroke:none;" d="M204.667 129.333L205.333 129.667L204.667 129.333z"/>
<path style="fill:#465759; stroke:none;" d="M206.333 129.667L206.667 130.333L206.333 129.667z"/>
<path style="fill:#7e6b62; stroke:none;" d="M207 129L208 130L207 129z"/>
<path style="fill:#d2cacb; stroke:none;" d="M213 129L214 130L213 129z"/>
<path style="fill:#7e6b62; stroke:none;" d="M218 129L219 130L218 129M16 130L17 131L16 130M18 130C17.0178 133.751 16.768 137.758 21 139L18 142C18.0288 145.483 15.8583 149.185 16.9082 152.576C19.2717 160.208 34.099 174.923 27 183L27 180L24 181L15 154L17 221L15 220L18 222L18 223L16 225L32 225L32 224L30 223L32 222L31 221L28 219C35.8913 217.617 28.5698 206.64 35 202L35 201L32 201L34 187L23 155L17 152L26 149C25.319 146.115 24.0631 128.41 20 132L18 130z"/>
<path style="fill:#d2cacb; stroke:none;" d="M22 130L23 131L22 130z"/>
<path style="fill:#7e6b62; stroke:none;" d="M23 130L24 131L23 130M88 130L88 134L89 134L90 130L88 130M163 130L164 131L163 130z"/>
<path style="fill:#d2cacb; stroke:none;" d="M188.333 130.667L188.667 131.333L188.333 130.667z"/>
<path style="fill:#7e6b62; stroke:none;" d="M189 130L190 131L189 130z"/>
<path style="fill:#9f9b9b; stroke:none;" d="M199 130L200 131L199 130z"/>
<path style="fill:#202726; stroke:none;" d="M200 130L201 131L200 130z"/>
<path style="fill:#7e6b62; stroke:none;" d="M202 130L202 133L213 139L202 130z"/>
<path style="fill:#9f9b9b; stroke:none;" d="M203 130L205 132L205 130L203 130z"/>
<path style="fill:#7e6b62; stroke:none;" d="M205 130L206 131L205 130z"/>
<path style="fill:#202726; stroke:none;" d="M207 130L207 131L216 142L217 142C215.342 136.262 212.569 132.379 207 130z"/>
<path style="fill:#d2cacb; stroke:none;" d="M210 130L211 131L210 130z"/>
<path style="fill:#465759; stroke:none;" d="M212 130L213 131L212 130z"/>
<path style="fill:#7e6b62; stroke:none;" d="M214 130L215 131L214 130z"/>
<path style="fill:#d2cacb; stroke:none;" d="M0.333333 131.667L0.666667 132.333L0.333333 131.667z"/>
<path style="fill:#7e6b62; stroke:none;" d="M62 131L63 132L62 131z"/>
<path style="fill:#d2cacb; stroke:none;" d="M142 131L143 132L142 131z"/>
<path style="fill:#465759; stroke:none;" d="M189.333 131.667L189.667 132.333L189.333 131.667z"/>
<path style="fill:#9f9b9b; stroke:none;" d="M198 131L199 132L198 131z"/>
<path style="fill:#d2cacb; stroke:none;" d="M205 131L205 132L208 133L205 131z"/>
<path style="fill:#7e6b62; stroke:none;" d="M207 131L208 132L207 131z"/>
<path style="fill:#465759; stroke:none;" d="M210 131L211 132L210 131z"/>
<path style="fill:#d2cacb; stroke:none;" d="M212 131L213 132L212 131z"/>
<path style="fill:#7e6b62; stroke:none;" d="M219 131L220 132L219 131M239 131L240 132L239 131z"/>
<path style="fill:#d2cacb; stroke:none;" d="M2 132L3 133L2 132z"/>
<path style="fill:#7e6b62; stroke:none;" d="M83 132L82 136L81 136L81 133L80 133L83 151L84 151L83 132z"/>
<path style="fill:#465759; stroke:none;" d="M89 132L89 139L90 139L89 132z"/>
<path style="fill:#7e6b62; stroke:none;" d="M164 132L165 133L164 132M198 132L198 134L200 132L198 132z"/>
<path style="fill:#9f9b9b; stroke:none;" d="M206 132L207 133L206 132M208 132L213 140L214 140L208 132z"/>
<path style="fill:#465759; stroke:none;" d="M209 132L210 133L209 132M211 132L212 133L211 132M215.333 132.667L215.667 133.333L215.333 132.667z"/>
<path style="fill:#9f9b9b; stroke:none;" d="M220 132L220 135L221 135L220 132z"/>
<path style="fill:#7e6b62; stroke:none;" d="M63 133L64 134L63 133M142 133L145 136L142 133z"/>
<path style="fill:#9f9b9b; stroke:none;" d="M164 133L164 136L165 136L166 133L164 133z"/>
<path style="fill:#465759; stroke:none;" d="M192 133L193 134L192 133z"/>
<path style="fill:#7e6b62; stroke:none;" d="M193 133L192 135L194 135L193 133z"/>
<path style="fill:#465759; stroke:none;" d="M210 133L211 134L210 133z"/>
<path style="fill:#d2cacb; stroke:none;" d="M214 133L215 134L214 133z"/>
<path style="fill:#7e6b62; stroke:none;" d="M219 133L221 141L222 141L219 133M231 133L233 136L231 133M2 134L3 135L2 134M16 134L17 135L16 134z"/>
<path style="fill:#9f9b9b; stroke:none;" d="M88 134L88 138L89 138L88 134z"/>
<path style="fill:#7e6b62; stroke:none;" d="M92 134L92 139L95 135L92 134z"/>
<path style="fill:#d2cacb; stroke:none;" d="M136 134L137 135L136 134M196 134L197 135L196 134z"/>
<path style="fill:#465759; stroke:none;" d="M211 134L213 136L213 134L211 134z"/>
<path style="fill:#d2cacb; stroke:none;" d="M215 134L216 138L217 138L215 134M0 135L1 136L0 135z"/>
<path style="fill:#9f9b9b; stroke:none;" d="M22 135L23 136L22 135z"/>
<path style="fill:#d2cacb; stroke:none;" d="M25 135L26 136L25 135z"/>
<path style="fill:#7e6b62; stroke:none;" d="M28 135L29 136L28 135M64.3333 135.667L64.6667 136.333L64.3333 135.667z"/>
<path style="fill:#d2cacb; stroke:none;" d="M143 135L144 136L143 135z"/>
<path style="fill:#9f9b9b; stroke:none;" d="M166 135L166 138L167 138L166 135z"/>
<path style="fill:#465759; stroke:none;" d="M192 135L192 140L193 140L192 135z"/>
<path style="fill:#9f9b9b; stroke:none;" d="M193 135L193 143L194 143L193 135z"/>
<path style="fill:#202726; stroke:none;" d="M194 135L194 145L195 145L194 135z"/>
<path style="fill:#7e6b62; stroke:none;" d="M195 135L196 136L195 135z"/>
<path style="fill:#d2cacb; stroke:none;" d="M211 135L212 136L211 135z"/>
<path style="fill:#465759; stroke:none;" d="M214 135L215 136L214 135M216 135L217 136L216 135z"/>
<path style="fill:#7e6b62; stroke:none;" d="M1 136L0 138L2 138L1 136M27 136L28 137L27 136M146 136L147 137L146 136z"/>
<path style="fill:#d2cacb; stroke:none;" d="M161 136L161 139L162 139L161 136z"/>
<path style="fill:#7e6b62; stroke:none;" d="M163 136L164 137L163 136z"/>
<path style="fill:#9f9b9b; stroke:none;" d="M170 136L171 137L170 136z"/>
<path style="fill:#465759; stroke:none;" d="M195 136L195 139L196 139L195 136z"/>
<path style="fill:#d2cacb; stroke:none;" d="M196 136L197 137L196 136z"/>
<path style="fill:#9f9b9b; stroke:none;" d="M215 136L216 137L215 136z"/>
<path style="fill:#7e6b62; stroke:none;" d="M238 136L237 142L239 147L240 147L240 144L241 144L243 167L244 167L241 137L238 136z"/>
<path style="fill:#465759; stroke:none;" d="M25 137L26 149L17 152L23 155L34 187C28.7969 188.051 31.3472 200.217 35 201L35 202L32 202C31.9785 207.155 33.4049 217.519 28 219L32 222L30 223L30 224C34.8225 225.148 45.7578 227.469 45 220L49 221C48.5777 214.81 47.76 209.347 42 206L42 205L42 204C45.6406 200.636 40.3707 193.02 39.0502 189C35.8989 179.407 29.2508 170.957 27.5394 160.83C26.1445 152.577 31.1521 144.395 25 137z"/>
<path style="fill:#7e6b62; stroke:none;" d="M65 137L66 141L67 141L65 137z"/>
<path style="fill:#465759; stroke:none;" d="M83 137L83 148L84 148L83 137z"/>
<path style="fill:#202726; stroke:none;" d="M90 137L90 145L91 145L90 137z"/>
<path style="fill:#465759; stroke:none;" d="M213 137L214 138L213 137M215 137L216 138L215 137M217 137L218 138L217 137M219.333 137.667L219.667 138.333L219.333 137.667z"/>
<path style="fill:#9f9b9b; stroke:none;" d="M221 137L221 140L222 140L221 137z"/>
<path style="fill:#7e6b62; stroke:none;" d="M26 138L27 139L26 138M28 138L29 139L28 138M88 138L89 142L90 142L88 138M148 138L149 139L148 138z"/>
<path style="fill:#465759; stroke:none;" d="M214 138L215 139L214 138z"/>
<path style="fill:#9f9b9b; stroke:none;" d="M216.667 138.333L217.333 138.667L216.667 138.333z"/>
<path style="fill:#7e6b62; stroke:none;" d="M0 139L1 144L2 144L0 139M162.333 139.667L162.667 140.333L162.333 139.667z"/>
<path style="fill:#d2cacb; stroke:none;" d="M196 139L196 142L197 142L196 139z"/>
<path style="fill:#465759; stroke:none;" d="M212 139L213 142L214 142L212 139z"/>
<path style="fill:#7e6b62; stroke:none;" d="M214 139L214 143L215 143L214 139z"/>
<path style="fill:#465759; stroke:none;" d="M216 139L217 140L216 139z"/>
<path style="fill:#d2cacb; stroke:none;" d="M217.333 139.667L217.667 140.333L217.333 139.667z"/>
<path style="fill:#7e6b62; stroke:none;" d="M212 140L213 141L212 140z"/>
<path style="fill:#465759; stroke:none;" d="M215 140L217 143L215 140z"/>
<path style="fill:#7e6b62; stroke:none;" d="M218 140L219 141L218 140z"/>
<path style="fill:#9f9b9b; stroke:none;" d="M220.333 140.667L220.667 141.333L220.333 140.667z"/>
<path style="fill:#7e6b62; stroke:none;" d="M232.667 140.333L233.333 140.667L232.667 140.333z"/>
<path style="fill:#465759; stroke:none;" d="M28 141L31 145L28 141z"/>
<path style="fill:#7e6b62; stroke:none;" d="M30 141L31 142L30 141M67.3333 141.667L67.6667 142.333L67.3333 141.667z"/>
<path style="fill:#465759; stroke:none;" d="M88 141L89 142L88 141z"/>
<path style="fill:#7e6b62; stroke:none;" d="M151 141L152 142L151 141z"/>
<path style="fill:#d2cacb; stroke:none;" d="M160 141L161 142L160 141M163 141L164 142L163 141M171 141L177 147L171 141z"/>
<path style="fill:#9f9b9b; stroke:none;" d="M217 141L219 143L219 141L217 141z"/>
<path style="fill:#465759; stroke:none;" d="M221 141L221 150L220 150L220 148L219 148L222 151L221 141z"/>
<path style="fill:#9f9b9b; stroke:none;" d="M89 142L89 146L90 146L89 142z"/>
<path style="fill:#7e6b62; stroke:none;" d="M153 142L160 150L153 142z"/>
<path style="fill:#d2cacb; stroke:none;" d="M205 142C206.222 150.814 211.349 150 219 150L219 143L205 142z"/>
<path style="fill:#7e6b62; stroke:none;" d="M217 142L218 143L217 142M220.333 142.667L220.667 143.333L220.333 142.667M30 143L31 144L30 143M68 143L72 158L73 158L68 143M91.3333 143.667L91.6667 144.333L91.3333 143.667M161 143L162 144L161 143z"/>
<path style="fill:#d2cacb; stroke:none;" d="M165.333 143.667L165.667 144.333L165.333 143.667M193 143L194 144L193 143z"/>
<path style="fill:#465759; stroke:none;" d="M195 143L196 146L197 146L195 143z"/>
<path style="fill:#7e6b62; stroke:none;" d="M32 144L33 145L32 144z"/>
<path style="fill:#202726; stroke:none;" d="M33 144L34 145L33 144z"/>
<path style="fill:#7e6b62; stroke:none;" d="M93 144L94 145L93 144M95 144L96 145L95 144z"/>
<path style="fill:#d2cacb; stroke:none;" d="M159 144L160 145L159 144z"/>
<path style="fill:#465759; stroke:none;" d="M193 144L194 145L193 144z"/>
<path style="fill:#d2cacb; stroke:none;" d="M195 144L195 147L196 147L195 144M200 144L201 145L200 144M203 144L204 145L203 144z"/>
<path style="fill:#9f9b9b; stroke:none;" d="M217.333 144.667L217.667 145.333L217.333 144.667M220 144L221 145L220 144z"/>
<path style="fill:#465759; stroke:none;" d="M240 144L240 158L241 158L241 156L242 156L242 159L243 159L240 144M31 145L32 146L31 145z"/>
<path style="fill:#202726; stroke:none;" d="M34.3333 145.667L34.6667 146.333L34.3333 145.667z"/>
<path style="fill:#465759; stroke:none;" d="M90.6667 145.333L91.3333 145.667L90.6667 145.333z"/>
<path style="fill:#d2cacb; stroke:none;" d="M153 145L154 146L153 145z"/>
<path style="fill:#9f9b9b; stroke:none;" d="M192 145L193 146L192 145z"/>
<path style="fill:#7e6b62; stroke:none;" d="M193.667 145.333L194.333 145.667L193.667 145.333M197 145L198 148L197 145z"/>
<path style="fill:#465759; stroke:none;" d="M219.333 145.667L219.667 146.333L219.333 145.667z"/>
<path style="fill:#7e6b62; stroke:none;" d="M220 145L220 150L221 150L220 145z"/>
<path style="fill:#d2cacb; stroke:none;" d="M222 145L223 146L222 145z"/>
<path style="fill:#7e6b62; stroke:none;" d="M32.6667 146.333L33.3333 146.667L32.6667 146.333z"/>
<path style="fill:#9f9b9b; stroke:none;" d="M37 146L38 147L37 146z"/>
<path style="fill:#7e6b62; stroke:none;" d="M89.6667 146.333L90.3333 146.667L89.6667 146.333z"/>
<path style="fill:#202726; stroke:none;" d="M91.3333 146.667L91.6667 147.333L91.3333 146.667z"/>
<path style="fill:#7e6b62; stroke:none;" d="M92 146L94 148L94 153L92 152L92 153L92 154L96 153L107 162C105.622 154.008 100.372 147.222 92 146M160.333 146.667L160.667 147.333L160.333 146.667z"/>
<path style="fill:#465759; stroke:none;" d="M189 146L190 147L189 146z"/>
<path style="fill:#7e6b62; stroke:none;" d="M191.333 146.667L191.667 147.333L191.333 146.667z"/>
<path style="fill:#d2cacb; stroke:none;" d="M192 146C193.68 167.282 191.823 189.778 203 209L204 209C196.768 187.754 194 168.528 194 146L192 146M223.333 146.667L223.667 147.333L223.333 146.667z"/>
<path style="fill:#465759; stroke:none;" d="M32 147L33 148L32 147z"/>
<path style="fill:#9f9b9b; stroke:none;" d="M33 147L35 151L36 151L33 147M90 147L92 150L90 147z"/>
<path style="fill:#7e6b62; stroke:none;" d="M189 147L190 148L189 147M33 148L34 149L33 148z"/>
<path style="fill:#9f9b9b; stroke:none;" d="M38 148L39 149L38 148z"/>
<path style="fill:#465759; stroke:none;" d="M91 148L93 153L94 153L94 148L91 148M191 148L190 150L191 148M197.333 148.667L197.667 149.333L197.333 148.667M30.6667 149.333L31.3333 149.667L30.6667 149.333M33 149L32 154L37.3094 171L53 204L54 204L48 177L47 177L48 184L47 184L33 149M84 149L84 152L85 152L84 149z"/>
<path style="fill:#7e6b62; stroke:none;" d="M90 149L91 150L90 149z"/>
<path style="fill:#d2cacb; stroke:none;" d="M166 150L166 151L176 151L166 150z"/>
<path style="fill:#7e6b62; stroke:none;" d="M191.333 149.667L191.667 150.333L191.333 149.667z"/>
<path style="fill:#d2cacb; stroke:none;" d="M195 149L196 150L195 149z"/>
<path style="fill:#7e6b62; stroke:none;" d="M91 150L92 151L91 150z"/>
<path style="fill:#465759; stroke:none;" d="M159 150L160 151L159 150z"/>
<path style="fill:#7e6b62; stroke:none;" d="M189.333 150.667L189.667 151.333L189.333 150.667z"/>
<path style="fill:#202726; stroke:none;" d="M190 150L190 174L191 174C192.439 167.954 194.146 155.057 190 150z"/>
<path style="fill:#9f9b9b; stroke:none;" d="M192 150L192 163L193 163L192 150z"/>
<path style="fill:#d2cacb; stroke:none;" d="M196.333 150.667L196.667 151.333L196.333 150.667z"/>
<path style="fill:#7e6b62; stroke:none;" d="M197.667 150.333L198.333 150.667L197.667 150.333z"/>
<path style="fill:#465759; stroke:none;" d="M216 150L216 151L219 152L216 150z"/>
<path style="fill:#9f9b9b; stroke:none;" d="M218 150L219 160L220 160L218 150z"/>
<path style="fill:#7e6b62; stroke:none;" d="M233 150L234 151L233 150z"/>
<path style="fill:#465759; stroke:none;" d="M31 151L32 152L31 151z"/>
<path style="fill:#9f9b9b; stroke:none;" d="M36 151L43 168C43.8385 161.819 40.1518 155.435 36 151z"/>
<path style="fill:#d2cacb; stroke:none;" d="M154 151L155 152L154 151z"/>
<path style="fill:#7e6b62; stroke:none;" d="M159 151L160 152L159 151z"/>
<path style="fill:#202726; stroke:none;" d="M160 151L161 152L160 151z"/>
<path style="fill:#d2cacb; stroke:none;" d="M164 151L165 152L164 151M205 151L206 152L205 151M206 152L213 161L212 159L213 159L216 167L217 167L214 153L212 154L206 152z"/>
<path style="fill:#202726; stroke:none;" d="M216 151L217 157L218 157L218 151L216 151z"/>
<path style="fill:#7e6b62; stroke:none;" d="M220 151L222 153L220 151z"/>
<path style="fill:#202726; stroke:none;" d="M221 151L222 152L221 151M9 152L10 153L9 152M55 152L56 153L55 152z"/>
<path style="fill:#7e6b62; stroke:none;" d="M84 152L84 159L78 156L86 176L88 176L82 161L86 162L84 152z"/>
<path style="fill:#465759; stroke:none;" d="M160.667 152.333L161.333 152.667L160.667 152.333M189.333 152.667L189.667 153.333L189.333 152.667M191 152L192 153L191 152z"/>
<path style="fill:#d2cacb; stroke:none;" d="M197 152L198 153L197 152z"/>
<path style="fill:#7e6b62; stroke:none;" d="M198.333 152.667L198.667 153.333L198.333 152.667z"/>
<path style="fill:#d2cacb; stroke:none;" d="M220 152C219.878 166.71 220.734 182.639 217.127 197C215.32 204.192 212.701 212.446 204 209C208.625 216.782 223.806 217.415 228 209L227 208L211 213C218.378 205.092 220.725 193.628 220.985 183C221.151 176.223 219.044 167.25 224 162L220 152z"/>
<path style="fill:#7e6b62; stroke:none;" d="M230 152L231 153L230 152z"/>
<path style="fill:#9f9b9b; stroke:none;" d="M16 153L24 181L27 180L27 183C33.9521 178.341 21.5556 156.62 16 153z"/>
<path style="fill:#465759; stroke:none;" d="M85.3333 153.667L85.6667 154.333L85.3333 153.667M94.3333 153.667L94.6667 154.333L94.3333 153.667z"/>
<path style="fill:#202726; stroke:none;" d="M161 153L163 155L161 153z"/>
<path style="fill:#7e6b62; stroke:none;" d="M216 153L217 154L216 153z"/>
<path style="fill:#465759; stroke:none;" d="M218 153L219 154L218 153z"/>
<path style="fill:#9f9b9b; stroke:none;" d="M93 154L94 155L93 154z"/>
<path style="fill:#7e6b62; stroke:none;" d="M93 156L97 157L97 156L96 154L93 156M161 154L162 155L161 154M189 154L189 159L190 159L189 154z"/>
<path style="fill:#465759; stroke:none;" d="M191.333 154.667L191.667 155.333L191.333 154.667z"/>
<path style="fill:#d2cacb; stroke:none;" d="M197 154L197 158L198 158L197 154z"/>
<path style="fill:#7e6b62; stroke:none;" d="M218 154L218 157L219 157L218 154z"/>
<path style="fill:#202726; stroke:none;" d="M95 155L96 156L95 155z"/>
<path style="fill:#9f9b9b; stroke:none;" d="M99 155L100 156L99 155z"/>
<path style="fill:#d2cacb; stroke:none;" d="M161 155L162 156L161 155z"/>
<path style="fill:#465759; stroke:none;" d="M162.667 155.333L163.333 155.667L162.667 155.333z"/>
<path style="fill:#d2cacb; stroke:none;" d="M164 155L167 158L164 155M170 155L171 161L172 161L170 155z"/>
<path style="fill:#465759; stroke:none;" d="M86 156L86 162L82 161L90 173L88 171C91.2709 166.213 89.0065 160.481 86 156z"/>
<path style="fill:#202726; stroke:none;" d="M163 156L165 158L163 156z"/>
<path style="fill:#7e6b62; stroke:none;" d="M164 156L165 157L164 156M199 156L200 157L199 156z"/>
<path style="fill:#d2cacb; stroke:none;" d="M203 156L204 157L203 156M223 156L224 157L223 156M227 156L229 166L230 166L227 156M239 156L239 160L240 160L239 156z"/>
<path style="fill:#202726; stroke:none;" d="M241 156L241 166L242 166L241 156z"/>
<path style="fill:#465759; stroke:none;" d="M94 157L93 160L94 157z"/>
<path style="fill:#202726; stroke:none;" d="M95 157L95 159L97 159L97 157L95 157z"/>
<path style="fill:#9f9b9b; stroke:none;" d="M103 157L104 158L103 157M165 157L166 158L165 157z"/>
<path style="fill:#465759; stroke:none;" d="M217 157L217 165L218 165L219 157L217 157z"/>
<path style="fill:#7e6b62; stroke:none;" d="M73 158L73 161L74 161L73 158z"/>
<path style="fill:#465759; stroke:none;" d="M164 158L164 159L167 160L164 158z"/>
<path style="fill:#d2cacb; stroke:none;" d="M198.333 158.667L198.667 159.333L198.333 158.667M222 158L224 160L222 158z"/>
<path style="fill:#7e6b62; stroke:none;" d="M240.333 158.667L240.667 159.333L240.333 158.667z"/>
<path style="fill:#202726; stroke:none;" d="M11 159L12 160L11 159z"/>
<path style="fill:#d2cacb; stroke:none;" d="M94 159C96.7489 165.534 99.23 166.626 106 167L106 166L99 166L94 159z"/>
<path style="fill:#465759; stroke:none;" d="M96 159L97 160L96 159z"/>
<path style="fill:#d2cacb; stroke:none;" d="M164 159L165 160L164 159z"/>
<path style="fill:#202726; stroke:none;" d="M165 159L166 160L165 159z"/>
<path style="fill:#d2cacb; stroke:none;" d="M167 159L168 160L167 159z"/>
<path style="fill:#7e6b62; stroke:none;" d="M218 159L219 160L218 159z"/>
<path style="fill:#9f9b9b; stroke:none;" d="M92 160L94 162L94 160L92 160z"/>
<path style="fill:#202726; stroke:none;" d="M94 160L95 161L94 160z"/>
<path style="fill:#7e6b62; stroke:none;" d="M108 160L109 161L108 160z"/>
<path style="fill:#202726; stroke:none;" d="M166 160L170 167L171 167L166 160z"/>
<path style="fill:#7e6b62; stroke:none;" d="M167 160L168 161L167 160M189 160L187 183L179 182L185 205L188 204L184 191L186 186L194 199L191 178L191 184L190 184L189 160M200 160L200 165L201 165L200 160z"/>
<path style="fill:#465759; stroke:none;" d="M242 160C241.911 165.286 238.572 183.623 245 185L242 160M94 161L95 162L94 161z"/>
<path style="fill:#7e6b62; stroke:none;" d="M111 161L112 162L111 161M166 161L167 162L166 161z"/>
<path style="fill:#d2cacb; stroke:none;" d="M170 161L172 166L173 162L170 161z"/>
<path style="fill:#202726; stroke:none;" d="M8 162L9 163L8 162z"/>
<path style="fill:#7e6b62; stroke:none;" d="M74 162L75 163L74 162M93 162L96 168L97 168L93 162z"/>
<path style="fill:#9f9b9b; stroke:none;" d="M95 162L96 163L95 162z"/>
<path style="fill:#7e6b62; stroke:none;" d="M102 163L102 164L109 165L110 163L102 163z"/>
<path style="fill:#465759; stroke:none;" d="M168 162L169 163L168 162z"/>
<path style="fill:#7e6b62; stroke:none;" d="M98 163L98 164L101 164L98 163M169 163L170 164L169 163z"/>
<path style="fill:#9f9b9b; stroke:none;" d="M170.333 163.667L170.667 164.333L170.333 163.667z"/>
<path style="fill:#7e6b62; stroke:none;" d="M192 163L192 168L193 168L192 163z"/>
<path style="fill:#202726; stroke:none;" d="M218 163L216 175L217 175L219 174L218 163z"/>
<path style="fill:#9f9b9b; stroke:none;" d="M219.333 163.667L219.667 164.333L219.333 163.667z"/>
<path style="fill:#d2cacb; stroke:none;" d="M223 163L222 168C225.407 167.27 225.254 165.254 223 163z"/>
<path style="fill:#202726; stroke:none;" d="M10 164L12 168L10 164z"/>
<path style="fill:#7e6b62; stroke:none;" d="M41.3333 164.667L41.6667 165.333L41.3333 164.667M75 164L76 168L77 168L75 164z"/>
<path style="fill:#9f9b9b; stroke:none;" d="M96 164L97 165L96 164z"/>
<path style="fill:#465759; stroke:none;" d="M168 164L169 165L168 164z"/>
<path style="fill:#d2cacb; stroke:none;" d="M197 164L198 165L197 164M199.333 164.667L199.667 165.333L199.333 164.667M106.667 165.333L107.333 165.667L106.667 165.333z"/>
<path style="fill:#7e6b62; stroke:none;" d="M109 165L110 166L109 165z"/>
<path style="fill:#465759; stroke:none;" d="M170 165L171 166L170 165z"/>
<path style="fill:#7e6b62; stroke:none;" d="M217 165L217 168L218 168L217 165z"/>
<path style="fill:#202726; stroke:none;" d="M47 166L48 167L47 166z"/>
<path style="fill:#465759; stroke:none;" d="M75 166L76 167L75 166z"/>
<path style="fill:#9f9b9b; stroke:none;" d="M97 166L96 169L97 166M102 166L103 167L102 166z"/>
<path style="fill:#d2cacb; stroke:none;" d="M108 166L108 167L110 169L112 168L115 176L114 176L113 171L111 172L106 167C110.093 173.901 110.302 177.161 106 184L110 181L115 184C118.123 176.6 117.334 167.445 108 166z"/>
<path style="fill:#7e6b62; stroke:none;" d="M169 166L170 167L169 166z"/>
<path style="fill:#9f9b9b; stroke:none;" d="M44 167L45 168L44 167z"/>
<path style="fill:#465759; stroke:none;" d="M93 167L90 171L93 167z"/>
<path style="fill:#d2cacb; stroke:none;" d="M94 167L90 173L92 172L91 175L92 175L96 168L94 167z"/>
<path style="fill:#465759; stroke:none;" d="M95 167L96 168L95 167z"/>
<path style="fill:#7e6b62; stroke:none;" d="M98 167L99 168L98 167z"/>
<path style="fill:#465759; stroke:none;" d="M99 167L100 168L99 167z"/>
<path style="fill:#202726; stroke:none;" d="M100.004 167.667C89.62 169.772 92.3251 186.173 102.996 183.551C113.073 181.075 110.001 165.64 100.004 167.667z"/>
<path style="fill:#465759; stroke:none;" d="M103 167L104 168L103 167z"/>
<path style="fill:#7e6b62; stroke:none;" d="M104 167L105 168L104 167z"/>
<path style="fill:#465759; stroke:none;" d="M170.667 167.333L171.333 167.667L170.667 167.333z"/>
<path style="fill:#7e6b62; stroke:none;" d="M200 167L202 178L198 176L207 201L205 208L205 209C211.645 213.042 214.302 206.797 216 201L214 201L217 199L218 194L215 192L211 204L210 204L205 192L212 194L216 186L216 185L212 183C211.808 176.282 208.081 175.055 202 175L200 167z"/>
<path style="fill:#d2cacb; stroke:none;" d="M229 167L232 176L233 176L231 167L229 167z"/>
<path style="fill:#9f9b9b; stroke:none;" d="M259 167L260 168L259 167z"/>
<path style="fill:#465759; stroke:none;" d="M76 168L77 172L78 172L76 168M189 168L190 184L191 184L191 178L193 179L193 168L192 168L191 174L190 174L189 168M217.333 168.667L217.667 169.333L217.333 168.667z"/>
<path style="fill:#9f9b9b; stroke:none;" d="M219 168L219 177L220 177L219 168z"/>
<path style="fill:#d2cacb; stroke:none;" d="M240 168L240 173L241 173L240 168z"/>
<path style="fill:#7e6b62; stroke:none;" d="M243 168L245 185L252 182L252 180C246.636 177.184 245.07 173.924 245 168L243 168z"/>
<path style="fill:#9f9b9b; stroke:none;" d="M261 168L262 169L261 168z"/>
<path style="fill:#7e6b62; stroke:none;" d="M77 169L78 170L77 169z"/>
<path style="fill:#9f9b9b; stroke:none;" d="M93 169L92 172L93 172L93 169z"/>
<path style="fill:#7e6b62; stroke:none;" d="M95 169L96 170L95 169z"/>
<path style="fill:#465759; stroke:none;" d="M98 169L100 171L100 169L98 169z"/>
<path style="fill:#7e6b62; stroke:none;" d="M100 169L101 170L100 169z"/>
<path style="fill:#465759; stroke:none;" d="M101 169L100 174L105 169L101 169z"/>
<path style="fill:#7e6b62; stroke:none;" d="M103 169L104 170L103 169M107 169L108 170L107 169z"/>
<path style="fill:#d2cacb; stroke:none;" d="M111 169L112 170L111 169z"/>
<path style="fill:#7e6b62; stroke:none;" d="M88 170L89 171L88 170z"/>
<path style="fill:#9f9b9b; stroke:none;" d="M94 170L95 171L94 170z"/>
<path style="fill:#7e6b62; stroke:none;" d="M97 170L96 172L97 170z"/>
<path style="fill:#9f9b9b; stroke:none;" d="M98 170L99 173L100 173L98 170z"/>
<path style="fill:#202726; stroke:none;" d="M100 170L100 173L101 173L102 170L100 170z"/>
<path style="fill:#7e6b62; stroke:none;" d="M105 170L106 171L105 170z"/>
<path style="fill:#9f9b9b; stroke:none;" d="M108 170L109 171L108 170z"/>
<path style="fill:#7e6b62; stroke:none;" d="M215 170L215 173L216 173L217 170L215 170z"/>
<path style="fill:#465759; stroke:none;" d="M48 171C47.254 173.946 46.8029 175.311 50 176L48 171z"/>
<path style="fill:#7e6b62; stroke:none;" d="M78 171L84 185L87 178L86 178L84 181L78 171z"/>
<path style="fill:#d2cacb; stroke:none;" d="M97 174C94.8309 177.281 95.6324 179.148 99 181L100 177L101 182C105.253 180.51 106.865 178.31 108 174L101 178L99 171C97.0624 171.736 94.9205 172.436 97 174z"/>
<path style="fill:#7e6b62; stroke:none;" d="M103 171L102 177L103 177L103 171z"/>
<path style="fill:#202726; stroke:none;" d="M103 172L103 173L106 174L106 171L103 172z"/>
<path style="fill:#9f9b9b; stroke:none;" d="M106 171L107 172L106 171z"/>
<path style="fill:#465759; stroke:none;" d="M108 171L109 172L108 171M216.333 171.667L216.667 172.333L216.333 171.667z"/>
<path style="fill:#9f9b9b; stroke:none;" d="M91 172L89 176L91 172z"/>
<path style="fill:#7e6b62; stroke:none;" d="M93 172L94 173L93 172z"/>
<path style="fill:#465759; stroke:none;" d="M95 172L96 173L95 172M106.667 172.333L107.333 172.667L106.667 172.333z"/>
<path style="fill:#9f9b9b; stroke:none;" d="M109 172L110 173L109 172z"/>
<path style="fill:#7e6b62; stroke:none;" d="M204 172L204 174L206 174L206 172L204 172z"/>
<path style="fill:#202726; stroke:none;" d="M5.33333 173.667L5.66667 174.333L5.33333 173.667z"/>
<path style="fill:#465759; stroke:none;" d="M78.3333 173.667L78.6667 174.333L78.3333 173.667z"/>
<path style="fill:#202726; stroke:none;" d="M88 173L89 174L88 173z"/>
<path style="fill:#7e6b62; stroke:none;" d="M89.3333 173.667L89.6667 174.333L89.3333 173.667z"/>
<path style="fill:#9f9b9b; stroke:none;" d="M97 173L98 174L97 173M99 174L103 178L103 177L103 174L99 174z"/>
<path style="fill:#d2cacb; stroke:none;" d="M102 173L103 174L102 173z"/>
<path style="fill:#9f9b9b; stroke:none;" d="M106.667 173.333L107.333 173.667L106.667 173.333z"/>
<path style="fill:#465759; stroke:none;" d="M109 173L110 174L109 173M215 173L215 179L218 178L218 189L219 189C219 181.278 220.159 176.801 215 173z"/>
<path style="fill:#7e6b62; stroke:none;" d="M241 173L241 176L242 176L241 173z"/>
<path style="fill:#465759; stroke:none;" d="M88 174L89 175L88 174z"/>
<path style="fill:#9f9b9b; stroke:none;" d="M92.3333 174.667L92.6667 175.333L92.3333 174.667M95.6667 174.333L96.3333 174.667L95.6667 174.333z"/>
<path style="fill:#465759; stroke:none;" d="M104.667 174.333L105.333 174.667L104.667 174.333z"/>
<path style="fill:#9f9b9b; stroke:none;" d="M112 174L113 175L112 174z"/>
<path style="fill:#d2cacb; stroke:none;" d="M213.333 174.667L213.667 175.333L213.333 174.667z"/>
<path style="fill:#202726; stroke:none;" d="M88 175L89 176L88 175z"/>
<path style="fill:#465759; stroke:none;" d="M90 175L87 176L88 181L89 181L90 175z"/>
<path style="fill:#7e6b62; stroke:none;" d="M91 175L89 177L90 184L92 184L94 183L95 183L91 175z"/>
<path style="fill:#465759; stroke:none;" d="M94 175L95 176L94 175z"/>
<path style="fill:#202726; stroke:none;" d="M101 175L101 177L103 175L101 175z"/>
<path style="fill:#9f9b9b; stroke:none;" d="M104.667 175.333L105.333 175.667L104.667 175.333M193 175L193 180L194 180L193 175z"/>
<path style="fill:#d2cacb; stroke:none;" d="M200 175L201 176L200 175z"/>
<path style="fill:#9f9b9b; stroke:none;" d="M285 175L286 176L285 175z"/>
<path style="fill:#202726; stroke:none;" d="M8 176L9 177L8 176z"/>
<path style="fill:#465759; stroke:none;" d="M79.3333 176.667L79.6667 177.333L79.3333 176.667z"/>
<path style="fill:#7e6b62; stroke:none;" d="M94 176L95 177L94 176z"/>
<path style="fill:#9f9b9b; stroke:none;" d="M103 176L104 177L103 176M107.333 176.667L107.667 177.333L107.333 176.667M203 176C203 183.391 201.802 190.492 211 191C210.619 186.11 208.724 185.155 204 185L204 184L208 183L203 176z"/>
<path style="fill:#7e6b62; stroke:none;" d="M222 176C221.338 178.623 219.679 183.447 223 184L222 188L223 188L226 186L224 190C234.085 193.034 228.407 203.842 229 211L230 211C235.308 196.523 237.147 184.659 222 176z"/>
<path style="fill:#d2cacb; stroke:none;" d="M92 177L93 178L92 177z"/>
<path style="fill:#465759; stroke:none;" d="M94.3333 177.667L94.6667 178.333L94.3333 177.667z"/>
<path style="fill:#9f9b9b; stroke:none;" d="M99 177L101 182L99 177M104 177L102 181L103 181L104 177M277 182L281 178C277.453 177.453 276.453 178.453 277 182z"/>
<path style="fill:#7e6b62; stroke:none;" d="M328 177L327 181C329.183 179.581 329.643 179.079 328 177z"/>
<path style="fill:#202726; stroke:none;" d="M8 178L8 185L12 184L8 178z"/>
<path style="fill:#465759; stroke:none;" d="M56 178C54.8415 184.565 60.8508 185.944 66 184L56 178M80 178L85 203L91 215L88 207L88 205L104 202L104 207L107 201L108 201L109 203L117 190C120.501 195.251 115.546 214.887 112 214L108 225L149 225L155 209L153 225L155 225C156.564 212.627 158.837 199.104 155 187L154 187C153.612 196.048 151.649 208.416 145 215L146 211L143 193L140 198L135 194L132 205L127 203L125 211L121 215L118 188L112 190L112 189C101.648 193.261 90.2129 196.168 87 182L86 182L84 185L80 178z"/>
<path style="fill:#202726; stroke:none;" d="M87 178C87.0453 191.208 96.8721 196.836 109 191L109 190C97.1935 191.491 93.3776 187.424 87 178z"/>
<path style="fill:#9f9b9b; stroke:none;" d="M92 178L93 179L92 178z"/>
<path style="fill:#7e6b62; stroke:none;" d="M107 178L108 179L107 178M109 178L110 179L109 178M217 178L215 180L217 189L218 189L217 178z"/>
<path style="fill:#465759; stroke:none;" d="M93 179L94 180L93 179z"/>
<path style="fill:#9f9b9b; stroke:none;" d="M95 179L96 180L95 179M106 179L107 180L106 179M109 179L110 180L109 179M96 180L97 181L96 180M105 180L106 181L105 180z"/>
<path style="fill:#7e6b62; stroke:none;" d="M108 180L109 181L108 180M170 180L171 181L170 180M256 180L257 181L256 180z"/>
<path style="fill:#9f9b9b; stroke:none;" d="M93 181L92 183L93 181z"/>
<path style="fill:#7e6b62; stroke:none;" d="M97.6667 181.333L98.3333 181.667L97.6667 181.333z"/>
<path style="fill:#9f9b9b; stroke:none;" d="M103 181L104 182L103 181z"/>
<path style="fill:#7e6b62; stroke:none;" d="M104 181L105 182L104 181z"/>
<path style="fill:#465759; stroke:none;" d="M107 181L108 182L107 181M90 184L95 189L96 186L94 187L94 186L98 184L90 184z"/>
<path style="fill:#9f9b9b; stroke:none;" d="M95 182L96 183L95 182z"/>
<path style="fill:#465759; stroke:none;" d="M100.667 182.333L101.333 182.667L100.667 182.333z"/>
<path style="fill:#7e6b62; stroke:none;" d="M106 182L107 183L106 182M110 182L113 184L110 182z"/>
<path style="fill:#465759; stroke:none;" d="M193.333 182.667L193.667 183.333L193.333 182.667z"/>
<path style="fill:#7e6b62; stroke:none;" d="M96 183L97 184L96 183M104 183L97 184L97 185L105 184L104 183z"/>
<path style="fill:#9f9b9b; stroke:none;" d="M105 183L104 190L108 188L107 190L108 190L105 183M192 183L193 201L200 213L207 213L207 212C202.065 210.221 199.693 207.373 200 202L192 183z"/>
<path style="fill:#7e6b62; stroke:none;" d="M93 184L92 186L93 184z"/>
<path style="fill:#202726; stroke:none;" d="M95 184L94 187L95 184z"/>
<path style="fill:#465759; stroke:none;" d="M104 184L102 185C102.013 188.194 101.597 190.271 105 191L106 184L104 184z"/>
<path style="fill:#7e6b62; stroke:none;" d="M107 184L108 190L112 189L112 190L110 191C113.73 191.061 114.84 189.698 115 186L109 186L111 187L107 184z"/>
<path style="fill:#465759; stroke:none;" d="M112 184L113 185L112 184z"/>
<path style="fill:#7e6b62; stroke:none;" d="M129 184L126 186L122 196L123 192L120 189L119 189L121 215L125 211L127 203L132 205L135 194L140 198L143 193L146 211L145 215C150.609 211.323 158.37 188.392 152 184L150 187L150 196L147 195L148 191L133 184L129 184M170 184L171 196L172 196L170 184M193 184L193 187L194 187L193 184z"/>
<path style="fill:#9f9b9b; stroke:none;" d="M194 184L195 185L194 184z"/>
<path style="fill:#465759; stroke:none;" d="M222 184L223 200C226.054 200 226.354 205.26 226 208C233.668 205.251 231.661 191.267 224 190L226 186L223 188L222 188L222 184z"/>
<path style="fill:#9f9b9b; stroke:none;" d="M102 191C101.232 181.149 91.4829 188.848 102 191z"/>
<path style="fill:#202726; stroke:none;" d="M103 185L104 186L103 185z"/>
<path style="fill:#465759; stroke:none;" d="M193 185L194 186L193 185z"/>
<path style="fill:#7e6b62; stroke:none;" d="M242.667 185.333L243.333 185.667L242.667 185.333z"/>
<path style="fill:#d2cacb; stroke:none;" d="M105.667 186.333L106.333 186.667L105.667 186.333z"/>
<path style="fill:#465759; stroke:none;" d="M109.333 186.667L109.667 187.333L109.333 186.667M186 186L184 191C185.255 196.091 185.074 203.612 192 202L193 205L194 205C192.007 198.494 192.681 189.369 186 186M194 186L195 191L196 191L194 186M214 186L212 194L205 192L210 204L211 204L216 186L214 186z"/>
<path style="fill:#d2cacb; stroke:none;" d="M238 194L246 190L246 188C240.435 185.78 236.444 187.599 238 194z"/>
<path style="fill:#9f9b9b; stroke:none;" d="M21 187L20 190L23 188L21 187z"/>
<path style="fill:#202726; stroke:none;" d="M103.333 187.667L103.667 188.333L103.333 187.667z"/>
<path style="fill:#d2cacb; stroke:none;" d="M111 187L112 188L111 187z"/>
<path style="fill:#7e6b62; stroke:none;" d="M116 187L117 188L116 187M155.333 187.667L155.667 188.333L155.333 187.667M285 187L285 190L289 189L285 187z"/>
<path style="fill:#202726; stroke:none;" d="M11 188L11 192L12 192L11 188z"/>
<path style="fill:#7e6b62; stroke:none;" d="M95 188L96 189L95 188M104 188L105 189L104 188z"/>
<path style="fill:#d2cacb; stroke:none;" d="M105 190L108 188L105 190z"/>
<path style="fill:#7e6b62; stroke:none;" d="M118 188L119 189L118 188z"/>
<path style="fill:#9f9b9b; stroke:none;" d="M195 188L196 189L195 188M220 188L220 191L221 191L220 188z"/>
<path style="fill:#7e6b62; stroke:none;" d="M96 189L97 190L96 189z"/>
<path style="fill:#d2cacb; stroke:none;" d="M99.6667 189.333L100.333 189.667L99.6667 189.333z"/>
<path style="fill:#7e6b62; stroke:none;" d="M156 189L156 192L157 192L156 189M195 189L196 190L195 189M218 189L219 190L218 189M221 189L222 208L222 209C226.143 207.624 228.152 200.81 223 200L221 189z"/>
<path style="fill:#465759; stroke:none;" d="M98 190L99 191L98 190z"/>
<path style="fill:#7e6b62; stroke:none;" d="M105 190L106 191L105 190M194 190L195 191L194 190M217 190L218 191L217 190z"/>
<path style="fill:#9f9b9b; stroke:none;" d="M26 202L24 197L29 195C23.3307 186.676 18.9511 197.077 26 202z"/>
<path style="fill:#7e6b62; stroke:none;" d="M109 191L110 192L109 191M114 191L115 192L114 191z"/>
<path style="fill:#202726; stroke:none;" d="M195.333 191.667L195.667 192.333L195.333 191.667z"/>
<path style="fill:#465759; stroke:none;" d="M217 191L217 194L218 194L217 191z"/>
<path style="fill:#9f9b9b; stroke:none;" d="M196 192L197 193L196 192z"/>
<path style="fill:#7e6b62; stroke:none;" d="M86 193L87 201L103 197L103 196C94.9643 196.511 93.1922 196.958 86 193M108 193L109 194L108 193M157 193L155 225L157 225L157 193z"/>
<path style="fill:#465759; stroke:none;" d="M195 193L196 194L195 193z"/>
<path style="fill:#7e6b62; stroke:none;" d="M196 193L195 195L196 193z"/>
<path style="fill:#465759; stroke:none;" d="M129.333 194.667L129.667 195.333L129.333 194.667z"/>
<path style="fill:#202726; stroke:none;" d="M196 194L196 197L197 197L196 194z"/>
<path style="fill:#465759; stroke:none;" d="M216 195L216 198L217 198L216 195z"/>
<path style="fill:#9f9b9b; stroke:none;" d="M217 195L218 196L217 195M219 195L217 204L220 211L221 211L221 195L219 195M197 196L198 197L197 196M149.333 197.667L149.667 198.333L149.333 197.667z"/>
<path style="fill:#465759; stroke:none;" d="M196.667 197.333L197.333 197.667L196.667 197.333z"/>
<path style="fill:#7e6b62; stroke:none;" d="M203 197L204 205L205 205L203 197M33.3333 198.667L33.6667 199.333L33.3333 198.667z"/>
<path style="fill:#202726; stroke:none;" d="M197.333 198.667L197.667 199.333L197.333 198.667z"/>
<path style="fill:#465759; stroke:none;" d="M215 198L214 201L215 198M29.6667 199.333L30.3333 199.667L29.6667 199.333M112 199L113 200L112 199z"/>
<path style="fill:#9f9b9b; stroke:none;" d="M198 199L199 200L198 199M216 199L217 200L216 199z"/>
<path style="fill:#465759; stroke:none;" d="M128.333 200.667L128.667 201.333L128.333 200.667z"/>
<path style="fill:#7e6b62; stroke:none;" d="M170 200L170 205L171 205L170 200M192 200L195 207L196 207L192 200z"/>
<path style="fill:#465759; stroke:none;" d="M197.667 200.333L198.333 200.667L197.667 200.333z"/>
<path style="fill:#202726; stroke:none;" d="M189 201L190 202L189 201z"/>
<path style="fill:#7e6b62; stroke:none;" d="M197 201L199 203L199 201L197 201z"/>
<path style="fill:#d2cacb; stroke:none;" d="M337 201L315 225L338 225L337 201z"/>
<path style="fill:#202726; stroke:none;" d="M0 202L3 207L0 208L0 209L11 211C9.18428 205.829 4.88485 203.932 0 202M191 202L192 203L191 202z"/>
<path style="fill:#9f9b9b; stroke:none;" d="M215.333 202.667L215.667 203.333L215.333 202.667z"/>
<path style="fill:#d2cacb; stroke:none;" d="M220 202L221 203L220 202z"/>
<path style="fill:#465759; stroke:none;" d="M0 203L0 208L3 207L0 203z"/>
<path style="fill:#d2cacb; stroke:none;" d="M203 214C199.929 211.672 193.113 202.888 189.243 203.832C186.228 204.567 187.456 207.893 189.192 209.238C192.444 211.755 198.987 213.279 203 214z"/>
<path style="fill:#9f9b9b; stroke:none;" d="M191 203L192 204L191 203z"/>
<path style="fill:#7e6b62; stroke:none;" d="M199 203L201 206L199 203z"/>
<path style="fill:#9f9b9b; stroke:none;" d="M200 204L201 205L200 204z"/>
<path style="fill:#7e6b62; stroke:none;" d="M217 204L215 211L216 213L221 212L219 204L217 204M203 205L203 207L205 207L203 205z"/>
<path style="fill:#465759; stroke:none;" d="M213 205L214 206L213 205z"/>
<path style="fill:#9f9b9b; stroke:none;" d="M216 205L217 206L216 205z"/>
<path style="fill:#7e6b62; stroke:none;" d="M128 206L130 209L128 206M184 206L185 207L184 206z"/>
<path style="fill:#465759; stroke:none;" d="M200 206L201 207L200 206z"/>
<path style="fill:#9f9b9b; stroke:none;" d="M201 206L202 207L201 206M210 206L209 210L212 206L210 206z"/>
<path style="fill:#7e6b62; stroke:none;" d="M35 207L36 208L35 207z"/>
<path style="fill:#465759; stroke:none;" d="M92 207L92 208L99 209L92 207z"/>
<path style="fill:#7e6b62; stroke:none;" d="M197 207L198 208L197 207z"/>
<path style="fill:#d2cacb; stroke:none;" d="M198 207L199 208L198 207z"/>
<path style="fill:#7e6b62; stroke:none;" d="M200 207L201 208L200 207z"/>
<path style="fill:#202726; stroke:none;" d="M201 207L202 208L201 207z"/>
<path style="fill:#465759; stroke:none;" d="M204 207L205 208L204 207M223 207L224 208L223 207z"/>
<path style="fill:#7e6b62; stroke:none;" d="M32.6667 208.333L33.3333 208.667L32.6667 208.333z"/>
<path style="fill:#465759; stroke:none;" d="M201 208L203 210L201 208z"/>
<path style="fill:#7e6b62; stroke:none;" d="M202 208L203 209L202 208z"/>
<path style="fill:#9f9b9b; stroke:none;" d="M215 208L216 209L215 208M224 208L225 209L224 208z"/>
<path style="fill:#202726; stroke:none;" d="M88.3333 209.667L88.6667 210.333L88.3333 209.667M153 209L149 225L153 225L155 209L153 209z"/>
<path style="fill:#7e6b62; stroke:none;" d="M185 209L185 210L187 210L187 211C179.67 210.061 177.845 217.214 182.34 222.427C185.021 225.536 189.296 224.997 193 225L190 213L190 212L192 212L192 211L185 209M197 209L198 210L197 209M201 209L202 210L201 209z"/>
<path style="fill:#9f9b9b; stroke:none;" d="M214 209C212.787 212.371 213.47 213.383 217 214L217 211L214 209M190 210L191 211L190 210M192 212L195 211L192 212z"/>
<path style="fill:#7e6b62; stroke:none;" d="M202.667 210.333L203.333 210.667L202.667 210.333z"/>
<path style="fill:#9f9b9b; stroke:none;" d="M206 210L207 211L206 210z"/>
<path style="fill:#7e6b62; stroke:none;" d="M168 211C167.705 217.863 164.817 224.698 174 225L173 217L170 218L168 211z"/>
<path style="fill:#465759; stroke:none;" d="M190 212L190 213L192 224L201 225L202 223L201 220L198 221L196 215L196 214L202 215L190 212z"/>
<path style="fill:#202726; stroke:none;" d="M194 211L195 212L194 211z"/>
<path style="fill:#7e6b62; stroke:none;" d="M195 211L196 212L195 211M199 211L200 212L199 211M204 211L205 212L204 211z"/>
<path style="fill:#9f9b9b; stroke:none;" d="M209 211L210 212L209 211z"/>
<path style="fill:#7e6b62; stroke:none;" d="M197 212L198 213L197 212M202 212L203 213L202 212z"/>
<path style="fill:#465759; stroke:none;" d="M205 212L203 215L203 216C205.649 215.432 206.355 214.412 205 212z"/>
<path style="fill:#7e6b62; stroke:none;" d="M211.667 212.333L212.333 212.667L211.667 212.333M214 212L215 213L214 212z"/>
<path style="fill:#9f9b9b; stroke:none;" d="M219 212L220 213L219 212z"/>
<path style="fill:#7e6b62; stroke:none;" d="M170 213L171 214L170 213z"/>
<path style="fill:#9f9b9b; stroke:none;" d="M186 213L187 214L186 213z"/>
<path style="fill:#7e6b62; stroke:none;" d="M194.667 213.333L195.333 213.667L194.667 213.333M199 213L200 214L199 213M201 216L205 214L201 216z"/>
<path style="fill:#202726; stroke:none;" d="M206 213L206 215L208 215L206 213z"/>
<path style="fill:#7e6b62; stroke:none;" d="M207 213L208 214L207 213z"/>
<path style="fill:#202726; stroke:none;" d="M36 214L36 215L41 217L41 216L36 214z"/>
<path style="fill:#7e6b62; stroke:none;" d="M196 214L196 215L199 215L199 216L198 221L201 220L200 224L203 225C203.475 219.591 201.362 215.529 196 214z"/>
<path style="fill:#9f9b9b; stroke:none;" d="M203.667 214.333L204.333 214.667L203.667 214.333z"/>
<path style="fill:#465759; stroke:none;" d="M208 214L209 215L208 214z"/>
<path style="fill:#7e6b62; stroke:none;" d="M209 214C204.108 216.456 202.143 223.538 209 225L207 216L208 216L213 225L215 223C218.603 226.606 222.596 219.016 224 216L220 214L220 217L214 219L214 220L217 221L209 214z"/>
<path style="fill:#9f9b9b; stroke:none;" d="M210 214L211 215L210 214M219 214L220 215L219 214z"/>
<path style="fill:#465759; stroke:none;" d="M221.667 214.333L222.333 214.667L221.667 214.333M87 215L88 216L87 215z"/>
<path style="fill:#7e6b62; stroke:none;" d="M119 215L120 219L121 219L119 215z"/>
<path style="fill:#9f9b9b; stroke:none;" d="M198 215L199 216L198 215M200 215L203 225C207.841 223.963 204.552 219.553 204 216L200 215z"/>
<path style="fill:#465759; stroke:none;" d="M210 215L210 216L214 217L214 216L210 215z"/>
<path style="fill:#7e6b62; stroke:none;" d="M213 215L213 216L217 217L217 216L213 215z"/>
<path style="fill:#465759; stroke:none;" d="M215 215L216 216L215 215z"/>
<path style="fill:#202726; stroke:none;" d="M216.667 215.333L217.333 215.667L216.667 215.333z"/>
<path style="fill:#465759; stroke:none;" d="M218 215L219 216L218 215z"/>
<path style="fill:#7e6b62; stroke:none;" d="M224 215L225 216L224 215z"/>
<path style="fill:#9f9b9b; stroke:none;" d="M207 216C207.222 220.771 207.86 224.15 213 225L207 216M209 216L217 221L214 220L214 219L220 217L209 216z"/>
<path style="fill:#7e6b62; stroke:none;" d="M212 216L213 217L212 216z"/>
<path style="fill:#202726; stroke:none;" d="M2.66667 218.333L3.33333 218.667L2.66667 218.333z"/>
<path style="fill:#465759; stroke:none;" d="M211 220L212 221L211 220M23 221L24 222L23 221M213 222L214 223L213 222M214.333 223.667L214.667 224.333L214.333 223.667z"/>
<path style="fill:#202726; stroke:none;" d="M1.66667 224.333L2.33333 224.667L1.66667 224.333z"/>
<path style="fill:#465759; stroke:none;" d="M18 224L19 225L18 224M21 224L22 225L21 224z"/>
<path style="fill:#202726; stroke:none;" d="M131 224L131 225L134 225L131 224z"/>
</svg>
